<mxfile host="app.diagrams.net" modified="2021-08-16T12:43:54.460Z" agent="5.0 (Windows NT 10.0; Win64; x64) AppleWebKit/537.36 (KHTML, like Gecko) Chrome/92.0.4515.131 Safari/537.36" etag="Y3-E_fHiCl6e5sEH4PGc" version="14.9.6" type="github" pages="2">
  <diagram id="mIDMZpxKwtR33cvpWDUD" name="Page-1">
    <mxGraphModel dx="4168" dy="555" grid="1" gridSize="7" guides="1" tooltips="1" connect="1" arrows="1" fold="1" page="1" pageScale="1" pageWidth="3300" pageHeight="4681" background="none" math="0" shadow="0">
      <root>
        <mxCell id="0" />
        <mxCell id="1" parent="0" />
        <mxCell id="5TeKzXtCSBQQUykrGEJ6-19" value="forward(self, x)&lt;br&gt;&lt;span style=&quot;color: rgb(36 , 41 , 47) ; font-family: , , &amp;#34;sf mono&amp;#34; , &amp;#34;menlo&amp;#34; , &amp;#34;consolas&amp;#34; , &amp;#34;liberation mono&amp;#34; , monospace ; background-color: rgb(255 , 255 , 255)&quot;&gt; &lt;/span&gt;&lt;span class=&quot;pl-s1&quot; style=&quot;box-sizing: border-box ; color: rgb(36 , 41 , 47) ; font-family: , , &amp;#34;sf mono&amp;#34; , &amp;#34;menlo&amp;#34; , &amp;#34;consolas&amp;#34; , &amp;#34;liberation mono&amp;#34; , monospace ; background-color: rgb(255 , 255 , 255)&quot;&gt;y&lt;/span&gt;&lt;span style=&quot;color: rgb(36 , 41 , 47) ; font-family: , , &amp;#34;sf mono&amp;#34; , &amp;#34;menlo&amp;#34; , &amp;#34;consolas&amp;#34; , &amp;#34;liberation mono&amp;#34; , monospace ; background-color: rgb(255 , 255 , 255)&quot;&gt; &lt;/span&gt;&lt;span class=&quot;pl-c1&quot; style=&quot;box-sizing: border-box ; font-family: , , &amp;#34;sf mono&amp;#34; , &amp;#34;menlo&amp;#34; , &amp;#34;consolas&amp;#34; , &amp;#34;liberation mono&amp;#34; , monospace ; background-color: rgb(255 , 255 , 255)&quot;&gt;=&lt;/span&gt;&lt;span style=&quot;color: rgb(36 , 41 , 47) ; font-family: , , &amp;#34;sf mono&amp;#34; , &amp;#34;menlo&amp;#34; , &amp;#34;consolas&amp;#34; , &amp;#34;liberation mono&amp;#34; , monospace ; background-color: rgb(255 , 255 , 255)&quot;&gt; &lt;/span&gt;&lt;span class=&quot;pl-v&quot; style=&quot;box-sizing: border-box ; font-family: , , &amp;#34;sf mono&amp;#34; , &amp;#34;menlo&amp;#34; , &amp;#34;consolas&amp;#34; , &amp;#34;liberation mono&amp;#34; , monospace ; background-color: rgb(255 , 255 , 255)&quot;&gt;F&lt;/span&gt;&lt;span style=&quot;color: rgb(36 , 41 , 47) ; font-family: , , &amp;#34;sf mono&amp;#34; , &amp;#34;menlo&amp;#34; , &amp;#34;consolas&amp;#34; , &amp;#34;liberation mono&amp;#34; , monospace ; background-color: rgb(255 , 255 , 255)&quot;&gt;.&lt;/span&gt;&lt;span class=&quot;pl-en&quot; style=&quot;box-sizing: border-box ; font-family: , , &amp;#34;sf mono&amp;#34; , &amp;#34;menlo&amp;#34; , &amp;#34;consolas&amp;#34; , &amp;#34;liberation mono&amp;#34; , monospace ; background-color: rgb(255 , 255 , 255)&quot;&gt;relu&lt;/span&gt;&lt;span style=&quot;color: rgb(36 , 41 , 47) ; font-family: , , &amp;#34;sf mono&amp;#34; , &amp;#34;menlo&amp;#34; , &amp;#34;consolas&amp;#34; , &amp;#34;liberation mono&amp;#34; , monospace ; background-color: rgb(255 , 255 , 255)&quot;&gt;(&lt;/span&gt;&lt;span class=&quot;pl-s1&quot; style=&quot;box-sizing: border-box ; color: rgb(36 , 41 , 47) ; font-family: , , &amp;#34;sf mono&amp;#34; , &amp;#34;menlo&amp;#34; , &amp;#34;consolas&amp;#34; , &amp;#34;liberation mono&amp;#34; , monospace ; background-color: rgb(255 , 255 , 255)&quot;&gt;self&lt;/span&gt;&lt;span style=&quot;color: rgb(36 , 41 , 47) ; font-family: , , &amp;#34;sf mono&amp;#34; , &amp;#34;menlo&amp;#34; , &amp;#34;consolas&amp;#34; , &amp;#34;liberation mono&amp;#34; , monospace ; background-color: rgb(255 , 255 , 255)&quot;&gt;.&lt;/span&gt;&lt;span class=&quot;pl-en&quot; style=&quot;box-sizing: border-box ; font-family: , , &amp;#34;sf mono&amp;#34; , &amp;#34;menlo&amp;#34; , &amp;#34;consolas&amp;#34; , &amp;#34;liberation mono&amp;#34; , monospace ; background-color: rgb(255 , 255 , 255)&quot;&gt;bn1&lt;/span&gt;&lt;span style=&quot;color: rgb(36 , 41 , 47) ; font-family: , , &amp;#34;sf mono&amp;#34; , &amp;#34;menlo&amp;#34; , &amp;#34;consolas&amp;#34; , &amp;#34;liberation mono&amp;#34; , monospace ; background-color: rgb(255 , 255 , 255)&quot;&gt;(&lt;/span&gt;&lt;span class=&quot;pl-s1&quot; style=&quot;box-sizing: border-box ; color: rgb(36 , 41 , 47) ; font-family: , , &amp;#34;sf mono&amp;#34; , &amp;#34;menlo&amp;#34; , &amp;#34;consolas&amp;#34; , &amp;#34;liberation mono&amp;#34; , monospace ; background-color: rgb(255 , 255 , 255)&quot;&gt;self&lt;/span&gt;&lt;span style=&quot;color: rgb(36 , 41 , 47) ; font-family: , , &amp;#34;sf mono&amp;#34; , &amp;#34;menlo&amp;#34; , &amp;#34;consolas&amp;#34; , &amp;#34;liberation mono&amp;#34; , monospace ; background-color: rgb(255 , 255 , 255)&quot;&gt;.&lt;/span&gt;&lt;span class=&quot;pl-en&quot; style=&quot;box-sizing: border-box ; font-family: , , &amp;#34;sf mono&amp;#34; , &amp;#34;menlo&amp;#34; , &amp;#34;consolas&amp;#34; , &amp;#34;liberation mono&amp;#34; , monospace ; background-color: rgb(255 , 255 , 255)&quot;&gt;conv1&lt;/span&gt;&lt;span style=&quot;color: rgb(36 , 41 , 47) ; font-family: , , &amp;#34;sf mono&amp;#34; , &amp;#34;menlo&amp;#34; , &amp;#34;consolas&amp;#34; , &amp;#34;liberation mono&amp;#34; , monospace ; background-color: rgb(255 , 255 , 255)&quot;&gt;(&lt;/span&gt;&lt;span class=&quot;pl-s1&quot; style=&quot;box-sizing: border-box ; color: rgb(36 , 41 , 47) ; font-family: , , &amp;#34;sf mono&amp;#34; , &amp;#34;menlo&amp;#34; , &amp;#34;consolas&amp;#34; , &amp;#34;liberation mono&amp;#34; , monospace ; background-color: rgb(255 , 255 , 255)&quot;&gt;x&lt;/span&gt;&lt;span style=&quot;color: rgb(36 , 41 , 47) ; font-family: , , &amp;#34;sf mono&amp;#34; , &amp;#34;menlo&amp;#34; , &amp;#34;consolas&amp;#34; , &amp;#34;liberation mono&amp;#34; , monospace ; background-color: rgb(255 , 255 , 255)&quot;&gt;)), &lt;/span&gt;&lt;span class=&quot;pl-s1&quot; style=&quot;box-sizing: border-box ; color: rgb(36 , 41 , 47) ; font-family: , , &amp;#34;sf mono&amp;#34; , &amp;#34;menlo&amp;#34; , &amp;#34;consolas&amp;#34; , &amp;#34;liberation mono&amp;#34; , monospace ; background-color: rgb(255 , 255 , 255)&quot;&gt;inplace&lt;/span&gt;&lt;span class=&quot;pl-c1&quot; style=&quot;box-sizing: border-box ; font-family: , , &amp;#34;sf mono&amp;#34; , &amp;#34;menlo&amp;#34; , &amp;#34;consolas&amp;#34; , &amp;#34;liberation mono&amp;#34; , monospace ; background-color: rgb(255 , 255 , 255)&quot;&gt;=&lt;/span&gt;&lt;span class=&quot;pl-c1&quot; style=&quot;box-sizing: border-box ; font-family: , , &amp;#34;sf mono&amp;#34; , &amp;#34;menlo&amp;#34; , &amp;#34;consolas&amp;#34; , &amp;#34;liberation mono&amp;#34; , monospace ; background-color: rgb(255 , 255 , 255)&quot;&gt;True&lt;/span&gt;&lt;span style=&quot;color: rgb(36 , 41 , 47) ; font-family: , , &amp;#34;sf mono&amp;#34; , &amp;#34;menlo&amp;#34; , &amp;#34;consolas&amp;#34; , &amp;#34;liberation mono&amp;#34; , monospace ; background-color: rgb(255 , 255 , 255)&quot;&gt;)&lt;br&gt;&lt;/span&gt;&lt;span class=&quot;pl-s1&quot; style=&quot;box-sizing: border-box ; color: rgb(36 , 41 , 47) ; font-family: , , &amp;#34;sf mono&amp;#34; , &amp;#34;menlo&amp;#34; , &amp;#34;consolas&amp;#34; , &amp;#34;liberation mono&amp;#34; , monospace ; background-color: rgb(255 , 255 , 255)&quot;&gt;y&lt;/span&gt;&lt;span style=&quot;color: rgb(36 , 41 , 47) ; font-family: , , &amp;#34;sf mono&amp;#34; , &amp;#34;menlo&amp;#34; , &amp;#34;consolas&amp;#34; , &amp;#34;liberation mono&amp;#34; , monospace ; background-color: rgb(255 , 255 , 255)&quot;&gt; &lt;/span&gt;&lt;span class=&quot;pl-c1&quot; style=&quot;box-sizing: border-box ; font-family: , , &amp;#34;sf mono&amp;#34; , &amp;#34;menlo&amp;#34; , &amp;#34;consolas&amp;#34; , &amp;#34;liberation mono&amp;#34; , monospace ; background-color: rgb(255 , 255 , 255)&quot;&gt;=&lt;/span&gt;&lt;span style=&quot;color: rgb(36 , 41 , 47) ; font-family: , , &amp;#34;sf mono&amp;#34; , &amp;#34;menlo&amp;#34; , &amp;#34;consolas&amp;#34; , &amp;#34;liberation mono&amp;#34; , monospace ; background-color: rgb(255 , 255 , 255)&quot;&gt; &lt;/span&gt;&lt;span class=&quot;pl-s1&quot; style=&quot;box-sizing: border-box ; color: rgb(36 , 41 , 47) ; font-family: , , &amp;#34;sf mono&amp;#34; , &amp;#34;menlo&amp;#34; , &amp;#34;consolas&amp;#34; , &amp;#34;liberation mono&amp;#34; , monospace ; background-color: rgb(255 , 255 , 255)&quot;&gt;self&lt;/span&gt;&lt;span style=&quot;color: rgb(36 , 41 , 47) ; font-family: , , &amp;#34;sf mono&amp;#34; , &amp;#34;menlo&amp;#34; , &amp;#34;consolas&amp;#34; , &amp;#34;liberation mono&amp;#34; , monospace ; background-color: rgb(255 , 255 , 255)&quot;&gt;.&lt;/span&gt;&lt;span class=&quot;pl-en&quot; style=&quot;box-sizing: border-box ; font-family: , , &amp;#34;sf mono&amp;#34; , &amp;#34;menlo&amp;#34; , &amp;#34;consolas&amp;#34; , &amp;#34;liberation mono&amp;#34; , monospace ; background-color: rgb(255 , 255 , 255)&quot;&gt;bn2&lt;/span&gt;&lt;span style=&quot;color: rgb(36 , 41 , 47) ; font-family: , , &amp;#34;sf mono&amp;#34; , &amp;#34;menlo&amp;#34; , &amp;#34;consolas&amp;#34; , &amp;#34;liberation mono&amp;#34; , monospace ; background-color: rgb(255 , 255 , 255)&quot;&gt;(&lt;/span&gt;&lt;span class=&quot;pl-s1&quot; style=&quot;box-sizing: border-box ; color: rgb(36 , 41 , 47) ; font-family: , , &amp;#34;sf mono&amp;#34; , &amp;#34;menlo&amp;#34; , &amp;#34;consolas&amp;#34; , &amp;#34;liberation mono&amp;#34; , monospace ; background-color: rgb(255 , 255 , 255)&quot;&gt;self&lt;/span&gt;&lt;span style=&quot;color: rgb(36 , 41 , 47) ; font-family: , , &amp;#34;sf mono&amp;#34; , &amp;#34;menlo&amp;#34; , &amp;#34;consolas&amp;#34; , &amp;#34;liberation mono&amp;#34; , monospace ; background-color: rgb(255 , 255 , 255)&quot;&gt;.&lt;/span&gt;&lt;span class=&quot;pl-en&quot; style=&quot;box-sizing: border-box ; font-family: , , &amp;#34;sf mono&amp;#34; , &amp;#34;menlo&amp;#34; , &amp;#34;consolas&amp;#34; , &amp;#34;liberation mono&amp;#34; , monospace ; background-color: rgb(255 , 255 , 255)&quot;&gt;conv2&lt;/span&gt;&lt;span style=&quot;color: rgb(36 , 41 , 47) ; font-family: , , &amp;#34;sf mono&amp;#34; , &amp;#34;menlo&amp;#34; , &amp;#34;consolas&amp;#34; , &amp;#34;liberation mono&amp;#34; , monospace ; background-color: rgb(255 , 255 , 255)&quot;&gt;(&lt;/span&gt;&lt;span class=&quot;pl-s1&quot; style=&quot;box-sizing: border-box ; color: rgb(36 , 41 , 47) ; font-family: , , &amp;#34;sf mono&amp;#34; , &amp;#34;menlo&amp;#34; , &amp;#34;consolas&amp;#34; , &amp;#34;liberation mono&amp;#34; , monospace ; background-color: rgb(255 , 255 , 255)&quot;&gt;y&lt;/span&gt;&lt;span style=&quot;color: rgb(36 , 41 , 47) ; font-family: , , &amp;#34;sf mono&amp;#34; , &amp;#34;menlo&amp;#34; , &amp;#34;consolas&amp;#34; , &amp;#34;liberation mono&amp;#34; , monospace ; background-color: rgb(255 , 255 , 255)&quot;&gt;))&lt;br&gt;&lt;/span&gt;&lt;table class=&quot;highlight tab-size js-file-line-container&quot; style=&quot;border-collapse: collapse ; border-spacing: 0px ; color: rgb(36 , 41 , 47) ; font-family: , &amp;#34;blinkmacsystemfont&amp;#34; , &amp;#34;segoe ui&amp;#34; , &amp;#34;helvetica&amp;#34; , &amp;#34;arial&amp;#34; , sans-serif , &amp;#34;apple color emoji&amp;#34; , &amp;#34;segoe ui emoji&amp;#34; ; font-size: 14px ; background-color: rgb(255 , 255 , 255)&quot;&gt;&lt;tbody style=&quot;box-sizing: border-box&quot;&gt;&lt;tr style=&quot;box-sizing: border-box ; background-color: transparent&quot;&gt;&lt;/tr&gt;&lt;tr style=&quot;box-sizing: border-box&quot;&gt;&lt;td id=&quot;LC61&quot; class=&quot;blob-code blob-code-inner js-file-line&quot; style=&quot;box-sizing: border-box ; padding: 0px 10px ; line-height: 20px ; position: relative ; vertical-align: top ; overflow-wrap: normal ; font-family: , , &amp;#34;sf mono&amp;#34; , &amp;#34;menlo&amp;#34; , &amp;#34;consolas&amp;#34; , &amp;#34;liberation mono&amp;#34; , monospace ; font-size: 12px ; overflow: visible&quot;&gt;        &lt;span class=&quot;pl-s1&quot; style=&quot;box-sizing: border-box&quot;&gt;res&lt;/span&gt; &lt;span class=&quot;pl-c1&quot; style=&quot;box-sizing: border-box&quot;&gt;=&lt;/span&gt; &lt;span class=&quot;pl-s1&quot; style=&quot;box-sizing: border-box&quot;&gt;self&lt;/span&gt;.&lt;span class=&quot;pl-en&quot; style=&quot;box-sizing: border-box&quot;&gt;bn_res&lt;/span&gt;(&lt;span class=&quot;pl-s1&quot; style=&quot;box-sizing: border-box&quot;&gt;self&lt;/span&gt;.&lt;span class=&quot;pl-en&quot; style=&quot;box-sizing: border-box&quot;&gt;conv_res&lt;/span&gt;(&lt;span class=&quot;pl-s1&quot; style=&quot;box-sizing: border-box&quot;&gt;x&lt;/span&gt;)) &lt;span class=&quot;pl-k&quot; style=&quot;box-sizing: border-box&quot;&gt;if&lt;/span&gt; &lt;span class=&quot;pl-s1&quot; style=&quot;box-sizing: border-box&quot;&gt;self&lt;/span&gt;.&lt;span class=&quot;pl-s1&quot; style=&quot;box-sizing: border-box&quot;&gt;needs_conv_res&lt;/span&gt; &lt;span class=&quot;pl-k&quot; style=&quot;box-sizing: border-box&quot;&gt;else&lt;/span&gt; &lt;span class=&quot;pl-s1&quot; style=&quot;box-sizing: border-box&quot;&gt;x&lt;br&gt;return&lt;span style=&quot;font-family: , , &amp;#34;sf mono&amp;#34; , &amp;#34;menlo&amp;#34; , &amp;#34;consolas&amp;#34; , &amp;#34;liberation mono&amp;#34; , monospace&quot;&gt; &lt;/span&gt;&lt;span class=&quot;pl-s1&quot; style=&quot;box-sizing: border-box ; font-family: , , &amp;#34;sf mono&amp;#34; , &amp;#34;menlo&amp;#34; , &amp;#34;consolas&amp;#34; , &amp;#34;liberation mono&amp;#34; , monospace&quot;&gt;y&lt;/span&gt;&lt;span style=&quot;font-family: , , &amp;#34;sf mono&amp;#34; , &amp;#34;menlo&amp;#34; , &amp;#34;consolas&amp;#34; , &amp;#34;liberation mono&amp;#34; , monospace&quot;&gt; &lt;/span&gt;&lt;span class=&quot;pl-c1&quot; style=&quot;box-sizing: border-box ; font-family: , , &amp;#34;sf mono&amp;#34; , &amp;#34;menlo&amp;#34; , &amp;#34;consolas&amp;#34; , &amp;#34;liberation mono&amp;#34; , monospace&quot;&gt;+&lt;/span&gt;&lt;span style=&quot;font-family: , , &amp;#34;sf mono&amp;#34; , &amp;#34;menlo&amp;#34; , &amp;#34;consolas&amp;#34; , &amp;#34;liberation mono&amp;#34; , monospace&quot;&gt; &lt;/span&gt;&lt;span class=&quot;pl-s1&quot; style=&quot;box-sizing: border-box ; font-family: , , &amp;#34;sf mono&amp;#34; , &amp;#34;menlo&amp;#34; , &amp;#34;consolas&amp;#34; , &amp;#34;liberation mono&amp;#34; , monospace&quot;&gt;res&lt;/span&gt;&lt;br&gt;&lt;/span&gt;&lt;/td&gt;&lt;/tr&gt;&lt;tr style=&quot;box-sizing: border-box ; background-color: transparent&quot;&gt;&lt;td id=&quot;L62&quot; class=&quot;blob-num js-line-number&quot; style=&quot;box-sizing: border-box ; padding: 0px 10px ; cursor: pointer ; font-family: , , &amp;#34;sf mono&amp;#34; , &amp;#34;menlo&amp;#34; , &amp;#34;consolas&amp;#34; , &amp;#34;liberation mono&amp;#34; , monospace ; font-size: 12px ; line-height: 20px ; min-width: 50px ; text-align: right ; vertical-align: top ; width: 50px&quot;&gt;&lt;/td&gt;&lt;/tr&gt;&lt;/tbody&gt;&lt;/table&gt;&lt;br&gt;&amp;nbsp;" style="shape=module;align=left;spacingLeft=20;align=center;verticalAlign=top;rounded=0;html=1;" parent="1" vertex="1">
          <mxGeometry x="1001" y="402" width="490" height="102" as="geometry" />
        </mxCell>
        <mxCell id="5TeKzXtCSBQQUykrGEJ6-12" style="edgeStyle=orthogonalEdgeStyle;rounded=1;sketch=0;orthogonalLoop=1;jettySize=auto;html=1;entryX=0;entryY=0.5;entryDx=0;entryDy=0;" parent="1" source="8cmXExLqv_iDycsSzqJl-5" target="8cmXExLqv_iDycsSzqJl-3" edge="1">
          <mxGeometry relative="1" as="geometry">
            <Array as="points">
              <mxPoint x="-147" y="609" />
              <mxPoint x="-147" y="260" />
            </Array>
          </mxGeometry>
        </mxCell>
        <mxCell id="8cmXExLqv_iDycsSzqJl-5" value="&lt;span style=&quot;line-height: 80%&quot;&gt;&lt;span style=&quot;background-color: rgb(255 , 255 , 255)&quot;&gt;&lt;span class=&quot;pl-en&quot; style=&quot;box-sizing: border-box&quot;&gt;&lt;br&gt;conv3x3&lt;/span&gt;(&lt;span class=&quot;pl-s1&quot; style=&quot;box-sizing: border-box&quot;&gt;in_planes&lt;/span&gt;,  &lt;span class=&quot;pl-s1&quot; style=&quot;box-sizing: border-box&quot;&gt;out_planes&lt;/span&gt;, &lt;span class=&quot;pl-s1&quot; style=&quot;box-sizing: border-box&quot;&gt;stride&lt;/span&gt;&lt;span class=&quot;pl-c1&quot; style=&quot;box-sizing: border-box&quot;&gt;=&lt;/span&gt;&lt;span class=&quot;pl-c1&quot; style=&quot;box-sizing: border-box&quot;&gt;1&lt;/span&gt;, &lt;span class=&quot;pl-s1&quot; style=&quot;box-sizing: border-box&quot;&gt;use_bias&lt;/span&gt;&lt;span class=&quot;pl-c1&quot; style=&quot;box-sizing: border-box&quot;&gt;=&lt;/span&gt;&lt;span class=&quot;pl-c1&quot; style=&quot;box-sizing: border-box&quot;&gt;True&lt;/span&gt;)&lt;br&gt;&lt;/span&gt;&lt;table class=&quot;highlight tab-size js-file-line-container&quot; style=&quot;border-collapse: collapse ; border-spacing: 0px ; font-size: 14px&quot;&gt;&lt;tbody style=&quot;box-sizing: border-box&quot;&gt;&lt;tr style=&quot;box-sizing: border-box&quot;&gt;&lt;/tr&gt;&lt;tr style=&quot;box-sizing: border-box&quot;&gt;&lt;td id=&quot;LC33&quot; class=&quot;blob-code blob-code-inner js-file-line&quot; style=&quot;box-sizing: border-box ; padding: 0px 10px ; line-height: 20px ; position: relative ; vertical-align: top ; overflow-wrap: normal ; font-family: , , &amp;#34;sf mono&amp;#34; , &amp;#34;menlo&amp;#34; , &amp;#34;consolas&amp;#34; , &amp;#34;liberation mono&amp;#34; , monospace ; font-size: 12px ; overflow: visible&quot;&gt;&lt;span style=&quot;background-color: rgb(255 , 255 , 255)&quot;&gt;&lt;span class=&quot;pl-en&quot; style=&quot;box-sizing: border-box&quot;&gt;return conv&lt;/span&gt;(&lt;span class=&quot;pl-s1&quot; style=&quot;box-sizing: border-box&quot;&gt;in_planes&lt;/span&gt;,&lt;span class=&quot;pl-s1&quot; style=&quot;box-sizing: border-box&quot;&gt;out_planes&lt;/span&gt;,&lt;span class=&quot;pl-c1&quot; style=&quot;box-sizing: border-box&quot;&gt;3&lt;/span&gt;,&lt;span class=&quot;pl-s1&quot; style=&quot;box-sizing: border-box&quot;&gt;stride&lt;/span&gt;&lt;span class=&quot;pl-c1&quot; style=&quot;box-sizing: border-box&quot;&gt;=&lt;/span&gt;&lt;span class=&quot;pl-s1&quot; style=&quot;box-sizing: border-box&quot;&gt;stride,&lt;/span&gt;&amp;nbsp;&lt;span class=&quot;pl-s1&quot; style=&quot;box-sizing: border-box&quot;&gt;padding&lt;/span&gt;&lt;span class=&quot;pl-c1&quot; style=&quot;box-sizing: border-box&quot;&gt;=&lt;/span&gt;&lt;span class=&quot;pl-c1&quot; style=&quot;box-sizing: border-box&quot;&gt;1&lt;/span&gt;,&lt;span class=&quot;pl-s1&quot; style=&quot;box-sizing: border-box&quot;&gt;use_bias&lt;/span&gt;&lt;span class=&quot;pl-c1&quot; style=&quot;box-sizing: border-box&quot;&gt;=&lt;/span&gt;&lt;span class=&quot;pl-s1&quot; style=&quot;box-sizing: border-box&quot;&gt;use_bias&lt;/span&gt;)&lt;/span&gt;&lt;/td&gt;&lt;/tr&gt;&lt;tr style=&quot;box-sizing: border-box&quot;&gt;&lt;td id=&quot;L34&quot; class=&quot;blob-num js-line-number&quot; style=&quot;box-sizing: border-box ; padding: 0px 10px ; cursor: pointer ; font-family: , , &amp;#34;sf mono&amp;#34; , &amp;#34;menlo&amp;#34; , &amp;#34;consolas&amp;#34; , &amp;#34;liberation mono&amp;#34; , monospace ; font-size: 12px ; line-height: 20px ; min-width: 50px ; text-align: right ; vertical-align: top ; width: 50px&quot;&gt;&lt;/td&gt;&lt;/tr&gt;&lt;/tbody&gt;&lt;/table&gt;&lt;br&gt;&lt;/span&gt;" style="shape=process;whiteSpace=wrap;html=1;backgroundOutline=1;fillColor=#fff2cc;strokeColor=#d6b656;rounded=0;" parent="1" vertex="1">
          <mxGeometry x="-100" y="560" width="560" height="60" as="geometry" />
        </mxCell>
        <mxCell id="5TeKzXtCSBQQUykrGEJ6-14" style="edgeStyle=orthogonalEdgeStyle;rounded=1;sketch=0;orthogonalLoop=1;jettySize=auto;html=1;entryX=0;entryY=0.5;entryDx=0;entryDy=0;exitX=0;exitY=0.25;exitDx=0;exitDy=0;" parent="1" source="8cmXExLqv_iDycsSzqJl-4" target="8cmXExLqv_iDycsSzqJl-3" edge="1">
          <mxGeometry relative="1" as="geometry">
            <Array as="points">
              <mxPoint x="-126" y="414" />
              <mxPoint x="-126" y="399" />
              <mxPoint x="-120" y="399" />
              <mxPoint x="-120" y="260" />
            </Array>
          </mxGeometry>
        </mxCell>
        <mxCell id="8cmXExLqv_iDycsSzqJl-4" value="&lt;span style=&quot;line-height: 60%&quot;&gt;&lt;span style=&quot;background-color: rgb(255 , 255 , 255)&quot;&gt;&lt;span class=&quot;pl-en&quot; style=&quot;box-sizing: border-box&quot;&gt;&lt;br&gt;&lt;br&gt;&lt;br&gt;&lt;br&gt;conv1x1&lt;/span&gt;(&lt;span class=&quot;pl-s1&quot; style=&quot;box-sizing: border-box&quot;&gt;in_planes&lt;/span&gt;,  &lt;span class=&quot;pl-s1&quot; style=&quot;box-sizing: border-box&quot;&gt;out_planes&lt;/span&gt;, &lt;span class=&quot;pl-s1&quot; style=&quot;box-sizing: border-box&quot;&gt;stride&lt;/span&gt;&lt;span class=&quot;pl-c1&quot; style=&quot;box-sizing: border-box&quot;&gt;=&lt;/span&gt;&lt;span class=&quot;pl-c1&quot; style=&quot;box-sizing: border-box&quot;&gt;1&lt;/span&gt;, &lt;span class=&quot;pl-s1&quot; style=&quot;box-sizing: border-box&quot;&gt;use_bias&lt;/span&gt;&lt;span class=&quot;pl-c1&quot; style=&quot;box-sizing: border-box&quot;&gt;=&lt;/span&gt;&lt;span class=&quot;pl-c1&quot; style=&quot;box-sizing: border-box&quot;&gt;True&lt;/span&gt;)&lt;br&gt;&lt;/span&gt;&lt;span style=&quot;background-color: rgb(255 , 255 , 255)&quot;&gt;&lt;span class=&quot;pl-en&quot; style=&quot;box-sizing: border-box&quot;&gt;return conv&lt;/span&gt;(&lt;span class=&quot;pl-s1&quot; style=&quot;box-sizing: border-box&quot;&gt;in_planes&lt;/span&gt;,&lt;span class=&quot;pl-s1&quot; style=&quot;box-sizing: border-box&quot;&gt;out_planes&lt;/span&gt;,&lt;span class=&quot;pl-c1&quot; style=&quot;box-sizing: border-box&quot;&gt;3&lt;/span&gt;,&lt;span class=&quot;pl-s1&quot; style=&quot;box-sizing: border-box&quot;&gt;stride&lt;/span&gt;&lt;span class=&quot;pl-c1&quot; style=&quot;box-sizing: border-box&quot;&gt;=&lt;/span&gt;&lt;span class=&quot;pl-s1&quot; style=&quot;box-sizing: border-box&quot;&gt;stride,&lt;/span&gt;&amp;nbsp;&lt;span class=&quot;pl-s1&quot; style=&quot;box-sizing: border-box&quot;&gt;padding&lt;/span&gt;&lt;span class=&quot;pl-c1&quot; style=&quot;box-sizing: border-box&quot;&gt;=&lt;/span&gt;&lt;span class=&quot;pl-c1&quot; style=&quot;box-sizing: border-box&quot;&gt;1&lt;/span&gt;,&lt;span class=&quot;pl-s1&quot; style=&quot;box-sizing: border-box&quot;&gt;use_bias&lt;/span&gt;&lt;span class=&quot;pl-c1&quot; style=&quot;box-sizing: border-box&quot;&gt;=&lt;/span&gt;&lt;span class=&quot;pl-s1&quot; style=&quot;box-sizing: border-box&quot;&gt;use_bias&lt;/span&gt;)&lt;br&gt;&lt;/span&gt;&lt;span style=&quot;background-color: rgb(255 , 255 , 255)&quot;&gt;&lt;br&gt;&lt;br&gt;&lt;br&gt;&lt;/span&gt;&lt;table class=&quot;highlight tab-size js-file-line-container&quot; style=&quot;border-collapse: collapse ; border-spacing: 0px ; font-size: 14px&quot;&gt;&lt;tbody style=&quot;box-sizing: border-box&quot;&gt;&lt;tr style=&quot;box-sizing: border-box&quot;&gt;&lt;/tr&gt;&lt;tr style=&quot;box-sizing: border-box&quot;&gt;&lt;td id=&quot;LC29&quot; class=&quot;blob-code blob-code-inner js-file-line&quot; style=&quot;box-sizing: border-box ; padding: 0px 10px ; line-height: 20px ; position: relative ; vertical-align: top ; overflow-wrap: normal ; font-family: , , &amp;#34;sf mono&amp;#34; , &amp;#34;menlo&amp;#34; , &amp;#34;consolas&amp;#34; , &amp;#34;liberation mono&amp;#34; , monospace ; font-size: 12px ; overflow: visible&quot;&gt;&lt;br&gt;&lt;/td&gt;&lt;/tr&gt;&lt;tr style=&quot;box-sizing: border-box&quot;&gt;&lt;td id=&quot;L30&quot; class=&quot;blob-num js-line-number&quot; style=&quot;box-sizing: border-box ; padding: 0px 10px ; cursor: pointer ; font-family: , , &amp;#34;sf mono&amp;#34; , &amp;#34;menlo&amp;#34; , &amp;#34;consolas&amp;#34; , &amp;#34;liberation mono&amp;#34; , monospace ; font-size: 12px ; line-height: 20px ; min-width: 50px ; text-align: right ; vertical-align: top ; width: 50px&quot;&gt;&lt;/td&gt;&lt;/tr&gt;&lt;/tbody&gt;&lt;/table&gt;&lt;br&gt;&lt;/span&gt;" style="shape=process;whiteSpace=wrap;html=1;backgroundOutline=1;fillColor=#fff2cc;strokeColor=#d6b656;" parent="1" vertex="1">
          <mxGeometry x="-119" y="392" width="560" height="60" as="geometry" />
        </mxCell>
        <mxCell id="8cmXExLqv_iDycsSzqJl-3" value="&lt;span style=&quot;line-height: 60%&quot;&gt;&lt;span class=&quot;pl-en&quot; style=&quot;background-color: rgb(255 , 255 , 255) ; box-sizing: border-box&quot;&gt;conv&lt;/span&gt;&lt;span style=&quot;background-color: rgb(255 , 255 , 255)&quot;&gt;(&lt;/span&gt;&lt;span class=&quot;pl-s1&quot; style=&quot;background-color: rgb(255 , 255 , 255) ; box-sizing: border-box&quot;&gt;in_planes&lt;/span&gt;&lt;span style=&quot;background-color: rgb(255 , 255 , 255)&quot;&gt;,  &lt;/span&gt;&lt;span class=&quot;pl-s1&quot; style=&quot;background-color: rgb(255 , 255 , 255) ; box-sizing: border-box&quot;&gt;out_planes&lt;/span&gt;&lt;span style=&quot;background-color: rgb(255 , 255 , 255)&quot;&gt;, &lt;/span&gt;&lt;span class=&quot;pl-s1&quot; style=&quot;background-color: rgb(255 , 255 , 255) ; box-sizing: border-box&quot;&gt;kernel_size&lt;/span&gt;&lt;span style=&quot;background-color: rgb(255 , 255 , 255)&quot;&gt;, &lt;/span&gt;&lt;span class=&quot;pl-s1&quot; style=&quot;background-color: rgb(255 , 255 , 255) ; box-sizing: border-box&quot;&gt;stride&lt;/span&gt;&lt;span class=&quot;pl-c1&quot; style=&quot;background-color: rgb(255 , 255 , 255) ; box-sizing: border-box&quot;&gt;=&lt;/span&gt;&lt;span class=&quot;pl-c1&quot; style=&quot;background-color: rgb(255 , 255 , 255) ; box-sizing: border-box&quot;&gt;1&lt;/span&gt;&lt;span style=&quot;background-color: rgb(255 , 255 , 255)&quot;&gt;, &lt;/span&gt;&lt;span class=&quot;pl-s1&quot; style=&quot;background-color: rgb(255 , 255 , 255) ; box-sizing: border-box&quot;&gt;padding&lt;/span&gt;&lt;span class=&quot;pl-c1&quot; style=&quot;background-color: rgb(255 , 255 , 255) ; box-sizing: border-box&quot;&gt;=&lt;/span&gt;&lt;span class=&quot;pl-c1&quot; style=&quot;background-color: rgb(255 , 255 , 255) ; box-sizing: border-box&quot;&gt;0&lt;/span&gt;&lt;span style=&quot;background-color: rgb(255 , 255 , 255)&quot;&gt;, &lt;/span&gt;&lt;span class=&quot;pl-s1&quot; style=&quot;background-color: rgb(255 , 255 , 255) ; box-sizing: border-box&quot;&gt;use_bias&lt;/span&gt;&lt;span class=&quot;pl-c1&quot; style=&quot;background-color: rgb(255 , 255 , 255) ; box-sizing: border-box&quot;&gt;=&lt;/span&gt;&lt;span class=&quot;pl-c1&quot; style=&quot;background-color: rgb(255 , 255 , 255) ; box-sizing: border-box&quot;&gt;True&lt;/span&gt;&lt;span style=&quot;background-color: rgb(255 , 255 , 255)&quot;&gt;)&lt;br&gt;&lt;br&gt;&lt;span class=&quot;pl-k&quot; style=&quot;box-sizing: border-box&quot;&gt;return&lt;/span&gt; &lt;span class=&quot;pl-s1&quot; style=&quot;box-sizing: border-box&quot;&gt;nn&lt;/span&gt;.&lt;span class=&quot;pl-v&quot; style=&quot;box-sizing: border-box&quot;&gt;Conv2d&lt;/span&gt;(&lt;span class=&quot;pl-s1&quot; style=&quot;box-sizing: border-box&quot;&gt;in_planes&lt;/span&gt;, &lt;span class=&quot;pl-s1&quot; style=&quot;box-sizing: border-box&quot;&gt;out_planes&lt;/span&gt;, &lt;span class=&quot;pl-s1&quot; style=&quot;box-sizing: border-box&quot;&gt;kernel_size&lt;/span&gt;&lt;span class=&quot;pl-c1&quot; style=&quot;box-sizing: border-box&quot;&gt;=&lt;/span&gt;&lt;span class=&quot;pl-s1&quot; style=&quot;box-sizing: border-box&quot;&gt;kernel_size&lt;/span&gt;, &lt;span class=&quot;pl-s1&quot; style=&quot;box-sizing: border-box&quot;&gt;stride&lt;/span&gt;&lt;span class=&quot;pl-c1&quot; style=&quot;box-sizing: border-box&quot;&gt;=&lt;/span&gt;&lt;span class=&quot;pl-s1&quot; style=&quot;box-sizing: border-box&quot;&gt;stride&lt;/span&gt;, &lt;span class=&quot;pl-s1&quot; style=&quot;box-sizing: border-box&quot;&gt;padding&lt;/span&gt;&lt;span class=&quot;pl-c1&quot; style=&quot;box-sizing: border-box&quot;&gt;=&lt;/span&gt;&lt;span class=&quot;pl-s1&quot; style=&quot;box-sizing: border-box&quot;&gt;padding&lt;/span&gt;, &lt;span class=&quot;pl-s1&quot; style=&quot;box-sizing: border-box&quot;&gt;bias&lt;/span&gt;&lt;span class=&quot;pl-c1&quot; style=&quot;box-sizing: border-box&quot;&gt;=&lt;/span&gt;&lt;span class=&quot;pl-s1&quot; style=&quot;box-sizing: border-box&quot;&gt;use_bias&lt;/span&gt;)&lt;br&gt;&lt;/span&gt;&lt;/span&gt;" style="shape=process;whiteSpace=wrap;html=1;backgroundOutline=1;fillColor=#fff2cc;strokeColor=#d6b656;" parent="1" vertex="1">
          <mxGeometry x="-100" y="230" width="560" height="60" as="geometry" />
        </mxCell>
        <mxCell id="5TeKzXtCSBQQUykrGEJ6-1" value="BasicResBlock&lt;br&gt;Inheriting nn.Module" style="swimlane;fontStyle=0;childLayout=stackLayout;horizontal=1;startSize=26;fillColor=#ffe6cc;horizontalStack=0;resizeParent=1;resizeParentMax=0;resizeLast=0;collapsible=1;marginBottom=0;rounded=0;strokeColor=#d79b00;html=1;" parent="1" vertex="1">
          <mxGeometry x="868" y="140" width="140" height="467" as="geometry" />
        </mxCell>
        <mxCell id="5TeKzXtCSBQQUykrGEJ6-2" value="+ expansion :1" style="text;fillColor=#f8cecc;align=left;verticalAlign=top;spacingLeft=4;spacingRight=4;overflow=hidden;rotatable=0;points=[[0,0.5],[1,0.5]];portConstraint=eastwest;strokeColor=#b85450;gradientColor=#ea6b66;" parent="5TeKzXtCSBQQUykrGEJ6-1" vertex="1">
          <mxGeometry y="26" width="140" height="441" as="geometry" />
        </mxCell>
        <mxCell id="5TeKzXtCSBQQUykrGEJ6-11" style="edgeStyle=orthogonalEdgeStyle;rounded=1;sketch=0;orthogonalLoop=1;jettySize=auto;html=1;entryX=1;entryY=0.25;entryDx=0;entryDy=0;exitX=0.996;exitY=0.359;exitDx=0;exitDy=0;exitPerimeter=0;" parent="1" source="5TeKzXtCSBQQUykrGEJ6-5" target="8cmXExLqv_iDycsSzqJl-5" edge="1">
          <mxGeometry relative="1" as="geometry">
            <mxPoint x="1274" y="469" as="sourcePoint" />
            <Array as="points">
              <mxPoint x="1554" y="251" />
              <mxPoint x="1554" y="63" />
              <mxPoint x="511" y="63" />
              <mxPoint x="511" y="575" />
            </Array>
          </mxGeometry>
        </mxCell>
        <mxCell id="5TeKzXtCSBQQUykrGEJ6-17" style="edgeStyle=orthogonalEdgeStyle;rounded=1;sketch=0;orthogonalLoop=1;jettySize=auto;html=1;exitX=1;exitY=0.5;exitDx=0;exitDy=0;" parent="1" source="5TeKzXtCSBQQUykrGEJ6-5" edge="1">
          <mxGeometry relative="1" as="geometry">
            <mxPoint x="1487" y="280" as="sourcePoint" />
            <mxPoint x="460" y="575" as="targetPoint" />
            <Array as="points">
              <mxPoint x="1491" y="280" />
              <mxPoint x="1554" y="280" />
              <mxPoint x="1554" y="63" />
              <mxPoint x="511" y="63" />
              <mxPoint x="511" y="575" />
            </Array>
          </mxGeometry>
        </mxCell>
        <mxCell id="5TeKzXtCSBQQUykrGEJ6-18" style="edgeStyle=orthogonalEdgeStyle;rounded=1;sketch=0;orthogonalLoop=1;jettySize=auto;html=1;entryX=1;entryY=0.5;entryDx=0;entryDy=0;exitX=1;exitY=0.75;exitDx=0;exitDy=0;" parent="1" source="5TeKzXtCSBQQUykrGEJ6-5" target="8cmXExLqv_iDycsSzqJl-4" edge="1">
          <mxGeometry relative="1" as="geometry">
            <Array as="points">
              <mxPoint x="1491" y="336" />
              <mxPoint x="1519" y="336" />
              <mxPoint x="1519" y="91" />
              <mxPoint x="490" y="91" />
              <mxPoint x="490" y="422" />
            </Array>
          </mxGeometry>
        </mxCell>
        <mxCell id="5TeKzXtCSBQQUykrGEJ6-5" value="__init__(self,in_channel, out_channel, stride =1)&lt;br&gt;&lt;br&gt;self.stride = stride&lt;br&gt;self.in_channels = in_channels&lt;br&gt;self.out_channels = out_channels&lt;br&gt;self.conv1 = conv3x3(in_channels, out_channels. stride=stride, use_bias = False)&lt;br&gt;self.bn1 = nn.BatchNorm2d(out_channels)&lt;br&gt;self.conv2 = conv3x3(out_channels, out_channels, use_bias= False)&lt;br&gt;self.bn2 = nn.BatchNorm2d(out_channels)&lt;br&gt;&lt;span class=&quot;pl-s1&quot; style=&quot;box-sizing: border-box ; color: rgb(36 , 41 , 47) ; font-family: , , &amp;#34;sf mono&amp;#34; , &amp;#34;menlo&amp;#34; , &amp;#34;consolas&amp;#34; , &amp;#34;liberation mono&amp;#34; , monospace ; background-color: rgb(255 , 255 , 255)&quot;&gt;self&lt;/span&gt;&lt;span style=&quot;color: rgb(36 , 41 , 47) ; font-family: , , &amp;#34;sf mono&amp;#34; , &amp;#34;menlo&amp;#34; , &amp;#34;consolas&amp;#34; , &amp;#34;liberation mono&amp;#34; , monospace ; background-color: rgb(255 , 255 , 255)&quot;&gt;.&lt;/span&gt;&lt;span class=&quot;pl-s1&quot; style=&quot;box-sizing: border-box ; color: rgb(36 , 41 , 47) ; font-family: , , &amp;#34;sf mono&amp;#34; , &amp;#34;menlo&amp;#34; , &amp;#34;consolas&amp;#34; , &amp;#34;liberation mono&amp;#34; , monospace ; background-color: rgb(255 , 255 , 255)&quot;&gt;needs_conv_res&lt;/span&gt;&lt;span style=&quot;color: rgb(36 , 41 , 47) ; font-family: , , &amp;#34;sf mono&amp;#34; , &amp;#34;menlo&amp;#34; , &amp;#34;consolas&amp;#34; , &amp;#34;liberation mono&amp;#34; , monospace ; background-color: rgb(255 , 255 , 255)&quot;&gt; &lt;/span&gt;&lt;span class=&quot;pl-c1&quot; style=&quot;box-sizing: border-box ; font-family: , , &amp;#34;sf mono&amp;#34; , &amp;#34;menlo&amp;#34; , &amp;#34;consolas&amp;#34; , &amp;#34;liberation mono&amp;#34; , monospace ; background-color: rgb(255 , 255 , 255)&quot;&gt;=&lt;/span&gt;&lt;span style=&quot;color: rgb(36 , 41 , 47) ; font-family: , , &amp;#34;sf mono&amp;#34; , &amp;#34;menlo&amp;#34; , &amp;#34;consolas&amp;#34; , &amp;#34;liberation mono&amp;#34; , monospace ; background-color: rgb(255 , 255 , 255)&quot;&gt; &lt;/span&gt;&lt;span class=&quot;pl-s1&quot; style=&quot;box-sizing: border-box ; color: rgb(36 , 41 , 47) ; font-family: , , &amp;#34;sf mono&amp;#34; , &amp;#34;menlo&amp;#34; , &amp;#34;consolas&amp;#34; , &amp;#34;liberation mono&amp;#34; , monospace ; background-color: rgb(255 , 255 , 255)&quot;&gt;stride&lt;/span&gt;&lt;span class=&quot;pl-c1&quot; style=&quot;box-sizing: border-box ; font-family: , , &amp;#34;sf mono&amp;#34; , &amp;#34;menlo&amp;#34; , &amp;#34;consolas&amp;#34; , &amp;#34;liberation mono&amp;#34; , monospace ; background-color: rgb(255 , 255 , 255)&quot;&gt;&amp;gt;&lt;/span&gt;&lt;span class=&quot;pl-c1&quot; style=&quot;box-sizing: border-box ; font-family: , , &amp;#34;sf mono&amp;#34; , &amp;#34;menlo&amp;#34; , &amp;#34;consolas&amp;#34; , &amp;#34;liberation mono&amp;#34; , monospace ; background-color: rgb(255 , 255 , 255)&quot;&gt;1&lt;/span&gt;&lt;span style=&quot;color: rgb(36 , 41 , 47) ; font-family: , , &amp;#34;sf mono&amp;#34; , &amp;#34;menlo&amp;#34; , &amp;#34;consolas&amp;#34; , &amp;#34;liberation mono&amp;#34; , monospace ; background-color: rgb(255 , 255 , 255)&quot;&gt; &lt;/span&gt;&lt;span class=&quot;pl-c1&quot; style=&quot;box-sizing: border-box ; font-family: , , &amp;#34;sf mono&amp;#34; , &amp;#34;menlo&amp;#34; , &amp;#34;consolas&amp;#34; , &amp;#34;liberation mono&amp;#34; , monospace ; background-color: rgb(255 , 255 , 255)&quot;&gt;or&lt;/span&gt;&lt;span style=&quot;color: rgb(36 , 41 , 47) ; font-family: , , &amp;#34;sf mono&amp;#34; , &amp;#34;menlo&amp;#34; , &amp;#34;consolas&amp;#34; , &amp;#34;liberation mono&amp;#34; , monospace ; background-color: rgb(255 , 255 , 255)&quot;&gt; &lt;/span&gt;&lt;span class=&quot;pl-s1&quot; style=&quot;box-sizing: border-box ; color: rgb(36 , 41 , 47) ; font-family: , , &amp;#34;sf mono&amp;#34; , &amp;#34;menlo&amp;#34; , &amp;#34;consolas&amp;#34; , &amp;#34;liberation mono&amp;#34; , monospace ; background-color: rgb(255 , 255 , 255)&quot;&gt;in_channels&lt;/span&gt;&lt;span class=&quot;pl-c1&quot; style=&quot;box-sizing: border-box ; font-family: , , &amp;#34;sf mono&amp;#34; , &amp;#34;menlo&amp;#34; , &amp;#34;consolas&amp;#34; , &amp;#34;liberation mono&amp;#34; , monospace ; background-color: rgb(255 , 255 , 255)&quot;&gt;!=&lt;/span&gt;&lt;span class=&quot;pl-s1&quot; style=&quot;box-sizing: border-box ; color: rgb(36 , 41 , 47) ; font-family: , , &amp;#34;sf mono&amp;#34; , &amp;#34;menlo&amp;#34; , &amp;#34;consolas&amp;#34; , &amp;#34;liberation mono&amp;#34; , monospace ; background-color: rgb(255 , 255 , 255)&quot;&gt;out_channels&lt;br&gt;if self.need_conv_res:&lt;br&gt;&lt;div&gt;&lt;span style=&quot;white-space: pre&quot;&gt;	&lt;/span&gt;self.conv_res =&amp;nbsp;&lt;span class=&quot;pl-en&quot; style=&quot;box-sizing: border-box&quot;&gt;conv1x1&lt;/span&gt;(&lt;span class=&quot;pl-s1&quot; style=&quot;box-sizing: border-box&quot;&gt;in_channels&lt;/span&gt;, &lt;span class=&quot;pl-s1&quot; style=&quot;box-sizing: border-box&quot;&gt;out_channels&lt;/span&gt;, &lt;span class=&quot;pl-s1&quot; style=&quot;box-sizing: border-box&quot;&gt;stride&lt;/span&gt;&lt;span class=&quot;pl-c1&quot; style=&quot;box-sizing: border-box&quot;&gt;=&lt;/span&gt;&lt;span class=&quot;pl-s1&quot; style=&quot;box-sizing: border-box&quot;&gt;stride&lt;/span&gt;, &lt;span class=&quot;pl-s1&quot; style=&quot;box-sizing: border-box&quot;&gt;use_bias&lt;/span&gt;&lt;span class=&quot;pl-c1&quot; style=&quot;box-sizing: border-box&quot;&gt;=&lt;/span&gt;&lt;span class=&quot;pl-c1&quot; style=&quot;box-sizing: border-box&quot;&gt;False&lt;/span&gt;)&lt;/div&gt;&lt;div&gt;&lt;span style=&quot;white-space: pre&quot;&gt;	&lt;/span&gt;sel.bn_res =nn.BatchNorm2d(out_channels)&lt;br&gt;&lt;/div&gt;&lt;table class=&quot;highlight tab-size js-file-line-container&quot; style=&quot;border-collapse: collapse ; border-spacing: 0px ; font-family: , &amp;#34;blinkmacsystemfont&amp;#34; , &amp;#34;segoe ui&amp;#34; , &amp;#34;helvetica&amp;#34; , &amp;#34;arial&amp;#34; , sans-serif , &amp;#34;apple color emoji&amp;#34; , &amp;#34;segoe ui emoji&amp;#34; ; font-size: 14px&quot;&gt;&lt;tbody style=&quot;box-sizing: border-box&quot;&gt;&lt;tr style=&quot;box-sizing: border-box ; background-color: transparent&quot;&gt;&lt;td id=&quot;LC54&quot; class=&quot;blob-code blob-code-inner js-file-line&quot; style=&quot;box-sizing: border-box ; padding: 0px 10px ; line-height: 20px ; position: relative ; vertical-align: top ; overflow-wrap: normal ; font-family: , , &amp;#34;sf mono&amp;#34; , &amp;#34;menlo&amp;#34; , &amp;#34;consolas&amp;#34; , &amp;#34;liberation mono&amp;#34; , monospace ; font-size: 12px ; overflow: visible&quot;&gt;&lt;/td&gt;&lt;/tr&gt;&lt;tr style=&quot;box-sizing: border-box ; background-color: transparent&quot;&gt;&lt;td id=&quot;L56&quot; class=&quot;blob-num js-line-number&quot; style=&quot;box-sizing: border-box ; padding: 0px 10px ; cursor: pointer ; font-family: , , &amp;#34;sf mono&amp;#34; , &amp;#34;menlo&amp;#34; , &amp;#34;consolas&amp;#34; , &amp;#34;liberation mono&amp;#34; , monospace ; font-size: 12px ; line-height: 20px ; min-width: 50px ; vertical-align: top ; width: 50px&quot;&gt;&lt;/td&gt;&lt;td id=&quot;LC56&quot; class=&quot;blob-code blob-code-inner js-file-line&quot; style=&quot;box-sizing: border-box ; padding: 0px 10px ; line-height: 20px ; position: relative ; vertical-align: top ; overflow-wrap: normal ; font-family: , , &amp;#34;sf mono&amp;#34; , &amp;#34;menlo&amp;#34; , &amp;#34;consolas&amp;#34; , &amp;#34;liberation mono&amp;#34; , monospace ; font-size: 12px ; overflow: visible&quot;&gt;&lt;br&gt;&lt;br&gt;&lt;/td&gt;&lt;/tr&gt;&lt;/tbody&gt;&lt;/table&gt;&lt;/span&gt;" style="shape=module;align=left;spacingLeft=20;align=center;verticalAlign=top;rounded=0;html=1;" parent="1" vertex="1">
          <mxGeometry x="1001" y="168" width="490" height="231" as="geometry" />
        </mxCell>
        <mxCell id="5TeKzXtCSBQQUykrGEJ6-22" value="num_params()&lt;br&gt;return num of parameters" style="shape=module;align=left;spacingLeft=20;align=center;verticalAlign=top;rounded=0;html=1;" parent="1" vertex="1">
          <mxGeometry x="1001" y="510" width="490" height="50" as="geometry" />
        </mxCell>
        <mxCell id="5TeKzXtCSBQQUykrGEJ6-25" value="BottleneckResBlock&lt;br&gt;Inheriting nn.Module" style="swimlane;fontStyle=0;childLayout=stackLayout;horizontal=1;startSize=26;fillColor=#ffe6cc;horizontalStack=0;resizeParent=1;resizeParentMax=0;resizeLast=0;collapsible=1;marginBottom=0;rounded=0;strokeColor=#d79b00;html=1;" parent="1" vertex="1">
          <mxGeometry x="868" y="679" width="140" height="483" as="geometry" />
        </mxCell>
        <mxCell id="5TeKzXtCSBQQUykrGEJ6-26" value="+ expansion :4" style="text;fillColor=#f8cecc;align=left;verticalAlign=top;spacingLeft=4;spacingRight=4;overflow=hidden;rotatable=0;points=[[0,0.5],[1,0.5]];portConstraint=eastwest;strokeColor=#b85450;gradientColor=#ea6b66;" parent="5TeKzXtCSBQQUykrGEJ6-25" vertex="1">
          <mxGeometry y="26" width="140" height="457" as="geometry" />
        </mxCell>
        <mxCell id="5TeKzXtCSBQQUykrGEJ6-24" value="Flops()&lt;br&gt;Calculate and retrns Flop&lt;br&gt;" style="shape=module;align=left;spacingLeft=20;align=center;verticalAlign=top;rounded=0;html=1;" parent="1" vertex="1">
          <mxGeometry x="1001" y="1113" width="490" height="50" as="geometry" />
        </mxCell>
        <mxCell id="5TeKzXtCSBQQUykrGEJ6-28" style="edgeStyle=orthogonalEdgeStyle;rounded=1;sketch=0;orthogonalLoop=1;jettySize=auto;html=1;entryX=1;entryY=0.5;entryDx=0;entryDy=0;exitX=0.998;exitY=0.359;exitDx=0;exitDy=0;exitPerimeter=0;" parent="1" source="5TeKzXtCSBQQUykrGEJ6-27" target="8cmXExLqv_iDycsSzqJl-4" edge="1">
          <mxGeometry relative="1" as="geometry">
            <mxPoint x="1533" y="315" as="targetPoint" />
            <Array as="points">
              <mxPoint x="1519" y="783" />
              <mxPoint x="1519" y="91" />
              <mxPoint x="490" y="91" />
              <mxPoint x="490" y="422" />
            </Array>
          </mxGeometry>
        </mxCell>
        <mxCell id="5TeKzXtCSBQQUykrGEJ6-30" style="edgeStyle=orthogonalEdgeStyle;rounded=1;sketch=0;orthogonalLoop=1;jettySize=auto;html=1;entryX=1;entryY=0.25;entryDx=0;entryDy=0;exitX=1;exitY=0.5;exitDx=0;exitDy=0;" parent="1" source="5TeKzXtCSBQQUykrGEJ6-27" target="8cmXExLqv_iDycsSzqJl-5" edge="1">
          <mxGeometry relative="1" as="geometry">
            <Array as="points">
              <mxPoint x="1554" y="816" />
              <mxPoint x="1554" y="63" />
              <mxPoint x="511" y="63" />
              <mxPoint x="511" y="575" />
            </Array>
          </mxGeometry>
        </mxCell>
        <mxCell id="5TeKzXtCSBQQUykrGEJ6-32" style="edgeStyle=orthogonalEdgeStyle;rounded=1;sketch=0;orthogonalLoop=1;jettySize=auto;html=1;exitX=1;exitY=0.597;exitDx=0;exitDy=0;exitPerimeter=0;entryX=1;entryY=0.5;entryDx=0;entryDy=0;" parent="1" source="5TeKzXtCSBQQUykrGEJ6-27" target="8cmXExLqv_iDycsSzqJl-4" edge="1">
          <mxGeometry relative="1" as="geometry">
            <mxPoint x="1673" y="938" as="targetPoint" />
            <Array as="points">
              <mxPoint x="1519" y="838" />
              <mxPoint x="1519" y="91" />
              <mxPoint x="490" y="91" />
              <mxPoint x="490" y="422" />
            </Array>
          </mxGeometry>
        </mxCell>
        <mxCell id="5TeKzXtCSBQQUykrGEJ6-33" style="edgeStyle=orthogonalEdgeStyle;rounded=1;sketch=0;orthogonalLoop=1;jettySize=auto;html=1;entryX=1;entryY=0.5;entryDx=0;entryDy=0;exitX=1;exitY=0.835;exitDx=0;exitDy=0;exitPerimeter=0;" parent="1" source="5TeKzXtCSBQQUykrGEJ6-27" target="8cmXExLqv_iDycsSzqJl-4" edge="1">
          <mxGeometry relative="1" as="geometry">
            <Array as="points">
              <mxPoint x="1519" y="893" />
              <mxPoint x="1519" y="91" />
              <mxPoint x="490" y="91" />
              <mxPoint x="490" y="422" />
            </Array>
          </mxGeometry>
        </mxCell>
        <mxCell id="5TeKzXtCSBQQUykrGEJ6-27" value="__init__(self,in_channel, out_channel, stride =1)&lt;br&gt;&lt;br&gt;self.stride = stride&lt;br&gt;self.in_channels = in_channels&lt;br&gt;self.out_channels = out_channels&lt;br&gt;self.conv1= conv1x1(in_channels, out_channel , use_bias+False)&lt;br&gt;self.bn2 = nn.BatchNorm2d(out_channels)&lt;br&gt;self.conv2= conv3x3(out_channels, out_channels. stride=stride, use_bias = False)&lt;br&gt;self.bn1 = nn.BatchNorm2d(out_channels)&lt;br&gt;self.conv3 = conv1x1(out_channels, out_channels*self.expnsion, use_bias= False)&lt;br&gt;self.bn3 = nn.BatchNorm2d(out_channels)&lt;br&gt;&lt;span class=&quot;pl-s1&quot; style=&quot;box-sizing: border-box ; color: rgb(36 , 41 , 47) ; font-family: , , &amp;#34;sf mono&amp;#34; , &amp;#34;menlo&amp;#34; , &amp;#34;consolas&amp;#34; , &amp;#34;liberation mono&amp;#34; , monospace ; background-color: rgb(255 , 255 , 255)&quot;&gt;self&lt;/span&gt;&lt;span style=&quot;color: rgb(36 , 41 , 47) ; font-family: , , &amp;#34;sf mono&amp;#34; , &amp;#34;menlo&amp;#34; , &amp;#34;consolas&amp;#34; , &amp;#34;liberation mono&amp;#34; , monospace ; background-color: rgb(255 , 255 , 255)&quot;&gt;.&lt;/span&gt;&lt;span class=&quot;pl-s1&quot; style=&quot;box-sizing: border-box ; color: rgb(36 , 41 , 47) ; font-family: , , &amp;#34;sf mono&amp;#34; , &amp;#34;menlo&amp;#34; , &amp;#34;consolas&amp;#34; , &amp;#34;liberation mono&amp;#34; , monospace ; background-color: rgb(255 , 255 , 255)&quot;&gt;needs_conv_res&lt;/span&gt;&lt;span style=&quot;color: rgb(36 , 41 , 47) ; font-family: , , &amp;#34;sf mono&amp;#34; , &amp;#34;menlo&amp;#34; , &amp;#34;consolas&amp;#34; , &amp;#34;liberation mono&amp;#34; , monospace ; background-color: rgb(255 , 255 , 255)&quot;&gt; &lt;/span&gt;&lt;span class=&quot;pl-c1&quot; style=&quot;box-sizing: border-box ; font-family: , , &amp;#34;sf mono&amp;#34; , &amp;#34;menlo&amp;#34; , &amp;#34;consolas&amp;#34; , &amp;#34;liberation mono&amp;#34; , monospace ; background-color: rgb(255 , 255 , 255)&quot;&gt;=&lt;/span&gt;&lt;span style=&quot;color: rgb(36 , 41 , 47) ; font-family: , , &amp;#34;sf mono&amp;#34; , &amp;#34;menlo&amp;#34; , &amp;#34;consolas&amp;#34; , &amp;#34;liberation mono&amp;#34; , monospace ; background-color: rgb(255 , 255 , 255)&quot;&gt; &lt;/span&gt;&lt;span class=&quot;pl-s1&quot; style=&quot;box-sizing: border-box ; color: rgb(36 , 41 , 47) ; font-family: , , &amp;#34;sf mono&amp;#34; , &amp;#34;menlo&amp;#34; , &amp;#34;consolas&amp;#34; , &amp;#34;liberation mono&amp;#34; , monospace ; background-color: rgb(255 , 255 , 255)&quot;&gt;stride&lt;/span&gt;&lt;span class=&quot;pl-c1&quot; style=&quot;box-sizing: border-box ; font-family: , , &amp;#34;sf mono&amp;#34; , &amp;#34;menlo&amp;#34; , &amp;#34;consolas&amp;#34; , &amp;#34;liberation mono&amp;#34; , monospace ; background-color: rgb(255 , 255 , 255)&quot;&gt;&amp;gt;&lt;/span&gt;&lt;span class=&quot;pl-c1&quot; style=&quot;box-sizing: border-box ; font-family: , , &amp;#34;sf mono&amp;#34; , &amp;#34;menlo&amp;#34; , &amp;#34;consolas&amp;#34; , &amp;#34;liberation mono&amp;#34; , monospace ; background-color: rgb(255 , 255 , 255)&quot;&gt;1&lt;/span&gt;&lt;span style=&quot;color: rgb(36 , 41 , 47) ; font-family: , , &amp;#34;sf mono&amp;#34; , &amp;#34;menlo&amp;#34; , &amp;#34;consolas&amp;#34; , &amp;#34;liberation mono&amp;#34; , monospace ; background-color: rgb(255 , 255 , 255)&quot;&gt; &lt;/span&gt;&lt;span class=&quot;pl-c1&quot; style=&quot;box-sizing: border-box ; font-family: , , &amp;#34;sf mono&amp;#34; , &amp;#34;menlo&amp;#34; , &amp;#34;consolas&amp;#34; , &amp;#34;liberation mono&amp;#34; , monospace ; background-color: rgb(255 , 255 , 255)&quot;&gt;or&lt;/span&gt;&lt;span style=&quot;color: rgb(36 , 41 , 47) ; font-family: , , &amp;#34;sf mono&amp;#34; , &amp;#34;menlo&amp;#34; , &amp;#34;consolas&amp;#34; , &amp;#34;liberation mono&amp;#34; , monospace ; background-color: rgb(255 , 255 , 255)&quot;&gt; &lt;/span&gt;&lt;span class=&quot;pl-s1&quot; style=&quot;box-sizing: border-box ; color: rgb(36 , 41 , 47) ; font-family: , , &amp;#34;sf mono&amp;#34; , &amp;#34;menlo&amp;#34; , &amp;#34;consolas&amp;#34; , &amp;#34;liberation mono&amp;#34; , monospace ; background-color: rgb(255 , 255 , 255)&quot;&gt;in_channels&lt;/span&gt;&lt;span class=&quot;pl-c1&quot; style=&quot;box-sizing: border-box ; font-family: , , &amp;#34;sf mono&amp;#34; , &amp;#34;menlo&amp;#34; , &amp;#34;consolas&amp;#34; , &amp;#34;liberation mono&amp;#34; , monospace ; background-color: rgb(255 , 255 , 255)&quot;&gt;!=&lt;/span&gt;&lt;span class=&quot;pl-s1&quot; style=&quot;box-sizing: border-box ; color: rgb(36 , 41 , 47) ; font-family: , , &amp;#34;sf mono&amp;#34; , &amp;#34;menlo&amp;#34; , &amp;#34;consolas&amp;#34; , &amp;#34;liberation mono&amp;#34; , monospace ; background-color: rgb(255 , 255 , 255)&quot;&gt;out_channels*self.expansion&lt;br&gt;if self.need_conv_res:&lt;br&gt;&lt;div&gt;&lt;span style=&quot;white-space: pre&quot;&gt;	&lt;/span&gt;self.conv_res =&amp;nbsp;&lt;span class=&quot;pl-en&quot; style=&quot;box-sizing: border-box&quot;&gt;conv1x1&lt;/span&gt;(&lt;span class=&quot;pl-s1&quot; style=&quot;box-sizing: border-box&quot;&gt;in_channels&lt;/span&gt;, &lt;span class=&quot;pl-s1&quot; style=&quot;box-sizing: border-box&quot;&gt;out_channels*self.expansion&lt;/span&gt;, &lt;span class=&quot;pl-s1&quot; style=&quot;box-sizing: border-box&quot;&gt;stride&lt;/span&gt;&lt;span class=&quot;pl-c1&quot; style=&quot;box-sizing: border-box&quot;&gt;=&lt;/span&gt;&lt;span class=&quot;pl-s1&quot; style=&quot;box-sizing: border-box&quot;&gt;stride&lt;/span&gt;, &lt;span class=&quot;pl-s1&quot; style=&quot;box-sizing: border-box&quot;&gt;use_bias&lt;/span&gt;&lt;span class=&quot;pl-c1&quot; style=&quot;box-sizing: border-box&quot;&gt;=&lt;/span&gt;&lt;span class=&quot;pl-c1&quot; style=&quot;box-sizing: border-box&quot;&gt;False&lt;/span&gt;)&lt;/div&gt;&lt;div&gt;&lt;span style=&quot;white-space: pre&quot;&gt;	&lt;/span&gt;sel.bn_res =nn.BatchNorm2d(out_channels)&lt;br&gt;&lt;/div&gt;&lt;table class=&quot;highlight tab-size js-file-line-container&quot; style=&quot;border-collapse: collapse ; border-spacing: 0px ; font-family: , &amp;#34;blinkmacsystemfont&amp;#34; , &amp;#34;segoe ui&amp;#34; , &amp;#34;helvetica&amp;#34; , &amp;#34;arial&amp;#34; , sans-serif , &amp;#34;apple color emoji&amp;#34; , &amp;#34;segoe ui emoji&amp;#34; ; font-size: 14px&quot;&gt;&lt;tbody style=&quot;box-sizing: border-box&quot;&gt;&lt;tr style=&quot;box-sizing: border-box ; background-color: transparent&quot;&gt;&lt;td id=&quot;LC54&quot; class=&quot;blob-code blob-code-inner js-file-line&quot; style=&quot;box-sizing: border-box ; padding: 0px 10px ; line-height: 20px ; position: relative ; vertical-align: top ; overflow-wrap: normal ; font-family: , , &amp;#34;sf mono&amp;#34; , &amp;#34;menlo&amp;#34; , &amp;#34;consolas&amp;#34; , &amp;#34;liberation mono&amp;#34; , monospace ; font-size: 12px ; overflow: visible&quot;&gt;&lt;/td&gt;&lt;/tr&gt;&lt;tr style=&quot;box-sizing: border-box ; background-color: transparent&quot;&gt;&lt;td id=&quot;L56&quot; class=&quot;blob-num js-line-number&quot; style=&quot;box-sizing: border-box ; padding: 0px 10px ; cursor: pointer ; font-family: , , &amp;#34;sf mono&amp;#34; , &amp;#34;menlo&amp;#34; , &amp;#34;consolas&amp;#34; , &amp;#34;liberation mono&amp;#34; , monospace ; font-size: 12px ; line-height: 20px ; min-width: 50px ; vertical-align: top ; width: 50px&quot;&gt;&lt;/td&gt;&lt;td id=&quot;LC56&quot; class=&quot;blob-code blob-code-inner js-file-line&quot; style=&quot;box-sizing: border-box ; padding: 0px 10px ; line-height: 20px ; position: relative ; vertical-align: top ; overflow-wrap: normal ; font-family: , , &amp;#34;sf mono&amp;#34; , &amp;#34;menlo&amp;#34; , &amp;#34;consolas&amp;#34; , &amp;#34;liberation mono&amp;#34; , monospace ; font-size: 12px ; overflow: visible&quot;&gt;&lt;br&gt;&lt;br&gt;&lt;/td&gt;&lt;/tr&gt;&lt;/tbody&gt;&lt;/table&gt;&lt;/span&gt;" style="shape=module;align=left;spacingLeft=20;align=center;verticalAlign=top;rounded=0;html=1;" parent="1" vertex="1">
          <mxGeometry x="1001" y="700" width="490" height="231" as="geometry" />
        </mxCell>
        <mxCell id="5TeKzXtCSBQQUykrGEJ6-34" value="forward(self, x)&lt;br&gt;&lt;span style=&quot;color: rgb(36 , 41 , 47) ; font-family: , , &amp;#34;sf mono&amp;#34; , &amp;#34;menlo&amp;#34; , &amp;#34;consolas&amp;#34; , &amp;#34;liberation mono&amp;#34; , monospace ; background-color: rgb(255 , 255 , 255)&quot;&gt; &lt;/span&gt;&lt;span class=&quot;pl-s1&quot; style=&quot;box-sizing: border-box ; color: rgb(36 , 41 , 47) ; font-family: , , &amp;#34;sf mono&amp;#34; , &amp;#34;menlo&amp;#34; , &amp;#34;consolas&amp;#34; , &amp;#34;liberation mono&amp;#34; , monospace ; background-color: rgb(255 , 255 , 255)&quot;&gt;y&lt;/span&gt;&lt;span style=&quot;color: rgb(36 , 41 , 47) ; font-family: , , &amp;#34;sf mono&amp;#34; , &amp;#34;menlo&amp;#34; , &amp;#34;consolas&amp;#34; , &amp;#34;liberation mono&amp;#34; , monospace ; background-color: rgb(255 , 255 , 255)&quot;&gt; &lt;/span&gt;&lt;span class=&quot;pl-c1&quot; style=&quot;box-sizing: border-box ; font-family: , , &amp;#34;sf mono&amp;#34; , &amp;#34;menlo&amp;#34; , &amp;#34;consolas&amp;#34; , &amp;#34;liberation mono&amp;#34; , monospace ; background-color: rgb(255 , 255 , 255)&quot;&gt;=&lt;/span&gt;&lt;span style=&quot;color: rgb(36 , 41 , 47) ; font-family: , , &amp;#34;sf mono&amp;#34; , &amp;#34;menlo&amp;#34; , &amp;#34;consolas&amp;#34; , &amp;#34;liberation mono&amp;#34; , monospace ; background-color: rgb(255 , 255 , 255)&quot;&gt; &lt;/span&gt;&lt;span class=&quot;pl-v&quot; style=&quot;box-sizing: border-box ; font-family: , , &amp;#34;sf mono&amp;#34; , &amp;#34;menlo&amp;#34; , &amp;#34;consolas&amp;#34; , &amp;#34;liberation mono&amp;#34; , monospace ; background-color: rgb(255 , 255 , 255)&quot;&gt;F&lt;/span&gt;&lt;span style=&quot;color: rgb(36 , 41 , 47) ; font-family: , , &amp;#34;sf mono&amp;#34; , &amp;#34;menlo&amp;#34; , &amp;#34;consolas&amp;#34; , &amp;#34;liberation mono&amp;#34; , monospace ; background-color: rgb(255 , 255 , 255)&quot;&gt;.&lt;/span&gt;&lt;span class=&quot;pl-en&quot; style=&quot;box-sizing: border-box ; font-family: , , &amp;#34;sf mono&amp;#34; , &amp;#34;menlo&amp;#34; , &amp;#34;consolas&amp;#34; , &amp;#34;liberation mono&amp;#34; , monospace ; background-color: rgb(255 , 255 , 255)&quot;&gt;relu&lt;/span&gt;&lt;span style=&quot;color: rgb(36 , 41 , 47) ; font-family: , , &amp;#34;sf mono&amp;#34; , &amp;#34;menlo&amp;#34; , &amp;#34;consolas&amp;#34; , &amp;#34;liberation mono&amp;#34; , monospace ; background-color: rgb(255 , 255 , 255)&quot;&gt;(&lt;/span&gt;&lt;span class=&quot;pl-s1&quot; style=&quot;box-sizing: border-box ; color: rgb(36 , 41 , 47) ; font-family: , , &amp;#34;sf mono&amp;#34; , &amp;#34;menlo&amp;#34; , &amp;#34;consolas&amp;#34; , &amp;#34;liberation mono&amp;#34; , monospace ; background-color: rgb(255 , 255 , 255)&quot;&gt;self&lt;/span&gt;&lt;span style=&quot;color: rgb(36 , 41 , 47) ; font-family: , , &amp;#34;sf mono&amp;#34; , &amp;#34;menlo&amp;#34; , &amp;#34;consolas&amp;#34; , &amp;#34;liberation mono&amp;#34; , monospace ; background-color: rgb(255 , 255 , 255)&quot;&gt;.&lt;/span&gt;&lt;span class=&quot;pl-en&quot; style=&quot;box-sizing: border-box ; font-family: , , &amp;#34;sf mono&amp;#34; , &amp;#34;menlo&amp;#34; , &amp;#34;consolas&amp;#34; , &amp;#34;liberation mono&amp;#34; , monospace ; background-color: rgb(255 , 255 , 255)&quot;&gt;bn1&lt;/span&gt;&lt;span style=&quot;color: rgb(36 , 41 , 47) ; font-family: , , &amp;#34;sf mono&amp;#34; , &amp;#34;menlo&amp;#34; , &amp;#34;consolas&amp;#34; , &amp;#34;liberation mono&amp;#34; , monospace ; background-color: rgb(255 , 255 , 255)&quot;&gt;(&lt;/span&gt;&lt;span class=&quot;pl-s1&quot; style=&quot;box-sizing: border-box ; color: rgb(36 , 41 , 47) ; font-family: , , &amp;#34;sf mono&amp;#34; , &amp;#34;menlo&amp;#34; , &amp;#34;consolas&amp;#34; , &amp;#34;liberation mono&amp;#34; , monospace ; background-color: rgb(255 , 255 , 255)&quot;&gt;self&lt;/span&gt;&lt;span style=&quot;color: rgb(36 , 41 , 47) ; font-family: , , &amp;#34;sf mono&amp;#34; , &amp;#34;menlo&amp;#34; , &amp;#34;consolas&amp;#34; , &amp;#34;liberation mono&amp;#34; , monospace ; background-color: rgb(255 , 255 , 255)&quot;&gt;.&lt;/span&gt;&lt;span class=&quot;pl-en&quot; style=&quot;box-sizing: border-box ; font-family: , , &amp;#34;sf mono&amp;#34; , &amp;#34;menlo&amp;#34; , &amp;#34;consolas&amp;#34; , &amp;#34;liberation mono&amp;#34; , monospace ; background-color: rgb(255 , 255 , 255)&quot;&gt;conv1&lt;/span&gt;&lt;span style=&quot;color: rgb(36 , 41 , 47) ; font-family: , , &amp;#34;sf mono&amp;#34; , &amp;#34;menlo&amp;#34; , &amp;#34;consolas&amp;#34; , &amp;#34;liberation mono&amp;#34; , monospace ; background-color: rgb(255 , 255 , 255)&quot;&gt;(&lt;/span&gt;&lt;span class=&quot;pl-s1&quot; style=&quot;box-sizing: border-box ; color: rgb(36 , 41 , 47) ; font-family: , , &amp;#34;sf mono&amp;#34; , &amp;#34;menlo&amp;#34; , &amp;#34;consolas&amp;#34; , &amp;#34;liberation mono&amp;#34; , monospace ; background-color: rgb(255 , 255 , 255)&quot;&gt;x&lt;/span&gt;&lt;span style=&quot;color: rgb(36 , 41 , 47) ; font-family: , , &amp;#34;sf mono&amp;#34; , &amp;#34;menlo&amp;#34; , &amp;#34;consolas&amp;#34; , &amp;#34;liberation mono&amp;#34; , monospace ; background-color: rgb(255 , 255 , 255)&quot;&gt;)), &lt;/span&gt;&lt;span class=&quot;pl-s1&quot; style=&quot;box-sizing: border-box ; color: rgb(36 , 41 , 47) ; font-family: , , &amp;#34;sf mono&amp;#34; , &amp;#34;menlo&amp;#34; , &amp;#34;consolas&amp;#34; , &amp;#34;liberation mono&amp;#34; , monospace ; background-color: rgb(255 , 255 , 255)&quot;&gt;inplace&lt;/span&gt;&lt;span class=&quot;pl-c1&quot; style=&quot;box-sizing: border-box ; font-family: , , &amp;#34;sf mono&amp;#34; , &amp;#34;menlo&amp;#34; , &amp;#34;consolas&amp;#34; , &amp;#34;liberation mono&amp;#34; , monospace ; background-color: rgb(255 , 255 , 255)&quot;&gt;=&lt;/span&gt;&lt;span class=&quot;pl-c1&quot; style=&quot;box-sizing: border-box ; font-family: , , &amp;#34;sf mono&amp;#34; , &amp;#34;menlo&amp;#34; , &amp;#34;consolas&amp;#34; , &amp;#34;liberation mono&amp;#34; , monospace ; background-color: rgb(255 , 255 , 255)&quot;&gt;True&lt;/span&gt;&lt;span style=&quot;color: rgb(36 , 41 , 47) ; font-family: , , &amp;#34;sf mono&amp;#34; , &amp;#34;menlo&amp;#34; , &amp;#34;consolas&amp;#34; , &amp;#34;liberation mono&amp;#34; , monospace ; background-color: rgb(255 , 255 , 255)&quot;&gt;)&lt;br&gt;&lt;/span&gt;&lt;span class=&quot;pl-s1&quot; style=&quot;box-sizing: border-box ; color: rgb(36 , 41 , 47) ; font-family: , , &amp;#34;sf mono&amp;#34; , &amp;#34;menlo&amp;#34; , &amp;#34;consolas&amp;#34; , &amp;#34;liberation mono&amp;#34; , monospace ; background-color: rgb(255 , 255 , 255)&quot;&gt;y&lt;/span&gt;&lt;span style=&quot;color: rgb(36 , 41 , 47) ; font-family: , , &amp;#34;sf mono&amp;#34; , &amp;#34;menlo&amp;#34; , &amp;#34;consolas&amp;#34; , &amp;#34;liberation mono&amp;#34; , monospace ; background-color: rgb(255 , 255 , 255)&quot;&gt; &lt;/span&gt;&lt;span class=&quot;pl-c1&quot; style=&quot;box-sizing: border-box ; font-family: , , &amp;#34;sf mono&amp;#34; , &amp;#34;menlo&amp;#34; , &amp;#34;consolas&amp;#34; , &amp;#34;liberation mono&amp;#34; , monospace ; background-color: rgb(255 , 255 , 255)&quot;&gt;=&lt;/span&gt;&lt;span style=&quot;color: rgb(36 , 41 , 47) ; font-family: , , &amp;#34;sf mono&amp;#34; , &amp;#34;menlo&amp;#34; , &amp;#34;consolas&amp;#34; , &amp;#34;liberation mono&amp;#34; , monospace ; background-color: rgb(255 , 255 , 255)&quot;&gt; &lt;/span&gt;&lt;span class=&quot;pl-s1&quot; style=&quot;box-sizing: border-box ; color: rgb(36 , 41 , 47) ; font-family: , , &amp;#34;sf mono&amp;#34; , &amp;#34;menlo&amp;#34; , &amp;#34;consolas&amp;#34; , &amp;#34;liberation mono&amp;#34; , monospace ; background-color: rgb(255 , 255 , 255)&quot;&gt;self&lt;/span&gt;&lt;span style=&quot;color: rgb(36 , 41 , 47) ; font-family: , , &amp;#34;sf mono&amp;#34; , &amp;#34;menlo&amp;#34; , &amp;#34;consolas&amp;#34; , &amp;#34;liberation mono&amp;#34; , monospace ; background-color: rgb(255 , 255 , 255)&quot;&gt;.&lt;/span&gt;&lt;span class=&quot;pl-en&quot; style=&quot;box-sizing: border-box ; font-family: , , &amp;#34;sf mono&amp;#34; , &amp;#34;menlo&amp;#34; , &amp;#34;consolas&amp;#34; , &amp;#34;liberation mono&amp;#34; , monospace ; background-color: rgb(255 , 255 , 255)&quot;&gt;bn2&lt;/span&gt;&lt;span style=&quot;color: rgb(36 , 41 , 47) ; font-family: , , &amp;#34;sf mono&amp;#34; , &amp;#34;menlo&amp;#34; , &amp;#34;consolas&amp;#34; , &amp;#34;liberation mono&amp;#34; , monospace ; background-color: rgb(255 , 255 , 255)&quot;&gt;(&lt;/span&gt;&lt;span class=&quot;pl-s1&quot; style=&quot;box-sizing: border-box ; color: rgb(36 , 41 , 47) ; font-family: , , &amp;#34;sf mono&amp;#34; , &amp;#34;menlo&amp;#34; , &amp;#34;consolas&amp;#34; , &amp;#34;liberation mono&amp;#34; , monospace ; background-color: rgb(255 , 255 , 255)&quot;&gt;self&lt;/span&gt;&lt;span style=&quot;color: rgb(36 , 41 , 47) ; font-family: , , &amp;#34;sf mono&amp;#34; , &amp;#34;menlo&amp;#34; , &amp;#34;consolas&amp;#34; , &amp;#34;liberation mono&amp;#34; , monospace ; background-color: rgb(255 , 255 , 255)&quot;&gt;.&lt;/span&gt;&lt;span class=&quot;pl-en&quot; style=&quot;box-sizing: border-box ; font-family: , , &amp;#34;sf mono&amp;#34; , &amp;#34;menlo&amp;#34; , &amp;#34;consolas&amp;#34; , &amp;#34;liberation mono&amp;#34; , monospace ; background-color: rgb(255 , 255 , 255)&quot;&gt;conv2&lt;/span&gt;&lt;span style=&quot;color: rgb(36 , 41 , 47) ; font-family: , , &amp;#34;sf mono&amp;#34; , &amp;#34;menlo&amp;#34; , &amp;#34;consolas&amp;#34; , &amp;#34;liberation mono&amp;#34; , monospace ; background-color: rgb(255 , 255 , 255)&quot;&gt;(&lt;/span&gt;&lt;span class=&quot;pl-s1&quot; style=&quot;box-sizing: border-box ; color: rgb(36 , 41 , 47) ; font-family: , , &amp;#34;sf mono&amp;#34; , &amp;#34;menlo&amp;#34; , &amp;#34;consolas&amp;#34; , &amp;#34;liberation mono&amp;#34; , monospace ; background-color: rgb(255 , 255 , 255)&quot;&gt;y&lt;/span&gt;&lt;span style=&quot;color: rgb(36 , 41 , 47) ; font-family: , , &amp;#34;sf mono&amp;#34; , &amp;#34;menlo&amp;#34; , &amp;#34;consolas&amp;#34; , &amp;#34;liberation mono&amp;#34; , monospace ; background-color: rgb(255 , 255 , 255)&quot;&gt;))&lt;br&gt;&lt;/span&gt;&lt;span class=&quot;pl-s1&quot; style=&quot;box-sizing: border-box ; color: rgb(36 , 41 , 47) ; font-family: , , &amp;#34;sf mono&amp;#34; , &amp;#34;menlo&amp;#34; , &amp;#34;consolas&amp;#34; , &amp;#34;liberation mono&amp;#34; , monospace ; background-color: rgb(255 , 255 , 255)&quot;&gt;y&lt;/span&gt;&lt;span style=&quot;color: rgb(36 , 41 , 47) ; font-family: , , &amp;#34;sf mono&amp;#34; , &amp;#34;menlo&amp;#34; , &amp;#34;consolas&amp;#34; , &amp;#34;liberation mono&amp;#34; , monospace ; background-color: rgb(255 , 255 , 255)&quot;&gt; &lt;/span&gt;&lt;span class=&quot;pl-c1&quot; style=&quot;box-sizing: border-box ; font-family: , , &amp;#34;sf mono&amp;#34; , &amp;#34;menlo&amp;#34; , &amp;#34;consolas&amp;#34; , &amp;#34;liberation mono&amp;#34; , monospace ; background-color: rgb(255 , 255 , 255)&quot;&gt;=&lt;/span&gt;&lt;span style=&quot;color: rgb(36 , 41 , 47) ; font-family: , , &amp;#34;sf mono&amp;#34; , &amp;#34;menlo&amp;#34; , &amp;#34;consolas&amp;#34; , &amp;#34;liberation mono&amp;#34; , monospace ; background-color: rgb(255 , 255 , 255)&quot;&gt; &lt;/span&gt;&lt;span class=&quot;pl-s1&quot; style=&quot;box-sizing: border-box ; color: rgb(36 , 41 , 47) ; font-family: , , &amp;#34;sf mono&amp;#34; , &amp;#34;menlo&amp;#34; , &amp;#34;consolas&amp;#34; , &amp;#34;liberation mono&amp;#34; , monospace ; background-color: rgb(255 , 255 , 255)&quot;&gt;self&lt;/span&gt;&lt;span style=&quot;color: rgb(36 , 41 , 47) ; font-family: , , &amp;#34;sf mono&amp;#34; , &amp;#34;menlo&amp;#34; , &amp;#34;consolas&amp;#34; , &amp;#34;liberation mono&amp;#34; , monospace ; background-color: rgb(255 , 255 , 255)&quot;&gt;.&lt;/span&gt;&lt;span class=&quot;pl-en&quot; style=&quot;box-sizing: border-box ; font-family: , , &amp;#34;sf mono&amp;#34; , &amp;#34;menlo&amp;#34; , &amp;#34;consolas&amp;#34; , &amp;#34;liberation mono&amp;#34; , monospace ; background-color: rgb(255 , 255 , 255)&quot;&gt;bn3&lt;/span&gt;&lt;span style=&quot;color: rgb(36 , 41 , 47) ; font-family: , , &amp;#34;sf mono&amp;#34; , &amp;#34;menlo&amp;#34; , &amp;#34;consolas&amp;#34; , &amp;#34;liberation mono&amp;#34; , monospace ; background-color: rgb(255 , 255 , 255)&quot;&gt;(&lt;/span&gt;&lt;span class=&quot;pl-s1&quot; style=&quot;box-sizing: border-box ; color: rgb(36 , 41 , 47) ; font-family: , , &amp;#34;sf mono&amp;#34; , &amp;#34;menlo&amp;#34; , &amp;#34;consolas&amp;#34; , &amp;#34;liberation mono&amp;#34; , monospace ; background-color: rgb(255 , 255 , 255)&quot;&gt;self&lt;/span&gt;&lt;span style=&quot;color: rgb(36 , 41 , 47) ; font-family: , , &amp;#34;sf mono&amp;#34; , &amp;#34;menlo&amp;#34; , &amp;#34;consolas&amp;#34; , &amp;#34;liberation mono&amp;#34; , monospace ; background-color: rgb(255 , 255 , 255)&quot;&gt;.&lt;/span&gt;&lt;span class=&quot;pl-en&quot; style=&quot;box-sizing: border-box ; font-family: , , &amp;#34;sf mono&amp;#34; , &amp;#34;menlo&amp;#34; , &amp;#34;consolas&amp;#34; , &amp;#34;liberation mono&amp;#34; , monospace ; background-color: rgb(255 , 255 , 255)&quot;&gt;conv3&lt;/span&gt;&lt;span style=&quot;color: rgb(36 , 41 , 47) ; font-family: , , &amp;#34;sf mono&amp;#34; , &amp;#34;menlo&amp;#34; , &amp;#34;consolas&amp;#34; , &amp;#34;liberation mono&amp;#34; , monospace ; background-color: rgb(255 , 255 , 255)&quot;&gt;(&lt;/span&gt;&lt;span class=&quot;pl-s1&quot; style=&quot;box-sizing: border-box ; color: rgb(36 , 41 , 47) ; font-family: , , &amp;#34;sf mono&amp;#34; , &amp;#34;menlo&amp;#34; , &amp;#34;consolas&amp;#34; , &amp;#34;liberation mono&amp;#34; , monospace ; background-color: rgb(255 , 255 , 255)&quot;&gt;y&lt;/span&gt;&lt;span style=&quot;color: rgb(36 , 41 , 47) ; font-family: , , &amp;#34;sf mono&amp;#34; , &amp;#34;menlo&amp;#34; , &amp;#34;consolas&amp;#34; , &amp;#34;liberation mono&amp;#34; , monospace ; background-color: rgb(255 , 255 , 255)&quot;&gt;))&lt;/span&gt;&lt;span style=&quot;color: rgb(36 , 41 , 47) ; font-family: , , &amp;#34;sf mono&amp;#34; , &amp;#34;menlo&amp;#34; , &amp;#34;consolas&amp;#34; , &amp;#34;liberation mono&amp;#34; , monospace ; background-color: rgb(255 , 255 , 255)&quot;&gt;&lt;br&gt;&lt;/span&gt;&lt;table class=&quot;highlight tab-size js-file-line-container&quot; style=&quot;border-collapse: collapse ; border-spacing: 0px ; color: rgb(36 , 41 , 47) ; font-family: , &amp;#34;blinkmacsystemfont&amp;#34; , &amp;#34;segoe ui&amp;#34; , &amp;#34;helvetica&amp;#34; , &amp;#34;arial&amp;#34; , sans-serif , &amp;#34;apple color emoji&amp;#34; , &amp;#34;segoe ui emoji&amp;#34; ; font-size: 14px ; background-color: rgb(255 , 255 , 255)&quot;&gt;&lt;tbody style=&quot;box-sizing: border-box&quot;&gt;&lt;tr style=&quot;box-sizing: border-box ; background-color: transparent&quot;&gt;&lt;/tr&gt;&lt;tr style=&quot;box-sizing: border-box&quot;&gt;&lt;td id=&quot;LC61&quot; class=&quot;blob-code blob-code-inner js-file-line&quot; style=&quot;box-sizing: border-box ; padding: 0px 10px ; line-height: 20px ; position: relative ; vertical-align: top ; overflow-wrap: normal ; font-family: , , &amp;#34;sf mono&amp;#34; , &amp;#34;menlo&amp;#34; , &amp;#34;consolas&amp;#34; , &amp;#34;liberation mono&amp;#34; , monospace ; font-size: 12px ; overflow: visible&quot;&gt;        &lt;span class=&quot;pl-s1&quot; style=&quot;box-sizing: border-box&quot;&gt;res&lt;/span&gt; &lt;span class=&quot;pl-c1&quot; style=&quot;box-sizing: border-box&quot;&gt;=&lt;/span&gt; &lt;span class=&quot;pl-s1&quot; style=&quot;box-sizing: border-box&quot;&gt;self&lt;/span&gt;.&lt;span class=&quot;pl-en&quot; style=&quot;box-sizing: border-box&quot;&gt;bn_res&lt;/span&gt;(&lt;span class=&quot;pl-s1&quot; style=&quot;box-sizing: border-box&quot;&gt;self&lt;/span&gt;.&lt;span class=&quot;pl-en&quot; style=&quot;box-sizing: border-box&quot;&gt;conv_res&lt;/span&gt;(&lt;span class=&quot;pl-s1&quot; style=&quot;box-sizing: border-box&quot;&gt;x&lt;/span&gt;)) &lt;span class=&quot;pl-k&quot; style=&quot;box-sizing: border-box&quot;&gt;if&lt;/span&gt; &lt;span class=&quot;pl-s1&quot; style=&quot;box-sizing: border-box&quot;&gt;self&lt;/span&gt;.&lt;span class=&quot;pl-s1&quot; style=&quot;box-sizing: border-box&quot;&gt;needs_conv_res&lt;/span&gt; &lt;span class=&quot;pl-k&quot; style=&quot;box-sizing: border-box&quot;&gt;else&lt;/span&gt; &lt;span class=&quot;pl-s1&quot; style=&quot;box-sizing: border-box&quot;&gt;x&lt;br&gt;return&lt;span style=&quot;font-family: , , &amp;#34;sf mono&amp;#34; , &amp;#34;menlo&amp;#34; , &amp;#34;consolas&amp;#34; , &amp;#34;liberation mono&amp;#34; , monospace&quot;&gt; &lt;/span&gt;&lt;span class=&quot;pl-s1&quot; style=&quot;box-sizing: border-box ; font-family: , , &amp;#34;sf mono&amp;#34; , &amp;#34;menlo&amp;#34; , &amp;#34;consolas&amp;#34; , &amp;#34;liberation mono&amp;#34; , monospace&quot;&gt;y&lt;/span&gt;&lt;span style=&quot;font-family: , , &amp;#34;sf mono&amp;#34; , &amp;#34;menlo&amp;#34; , &amp;#34;consolas&amp;#34; , &amp;#34;liberation mono&amp;#34; , monospace&quot;&gt; &lt;/span&gt;&lt;span class=&quot;pl-c1&quot; style=&quot;box-sizing: border-box ; font-family: , , &amp;#34;sf mono&amp;#34; , &amp;#34;menlo&amp;#34; , &amp;#34;consolas&amp;#34; , &amp;#34;liberation mono&amp;#34; , monospace&quot;&gt;+&lt;/span&gt;&lt;span style=&quot;font-family: , , &amp;#34;sf mono&amp;#34; , &amp;#34;menlo&amp;#34; , &amp;#34;consolas&amp;#34; , &amp;#34;liberation mono&amp;#34; , monospace&quot;&gt; &lt;/span&gt;&lt;span class=&quot;pl-s1&quot; style=&quot;box-sizing: border-box ; font-family: , , &amp;#34;sf mono&amp;#34; , &amp;#34;menlo&amp;#34; , &amp;#34;consolas&amp;#34; , &amp;#34;liberation mono&amp;#34; , monospace&quot;&gt;res&lt;/span&gt;&lt;br&gt;&lt;/span&gt;&lt;/td&gt;&lt;/tr&gt;&lt;tr style=&quot;box-sizing: border-box ; background-color: transparent&quot;&gt;&lt;td id=&quot;L62&quot; class=&quot;blob-num js-line-number&quot; style=&quot;box-sizing: border-box ; padding: 0px 10px ; cursor: pointer ; font-family: , , &amp;#34;sf mono&amp;#34; , &amp;#34;menlo&amp;#34; , &amp;#34;consolas&amp;#34; , &amp;#34;liberation mono&amp;#34; , monospace ; font-size: 12px ; line-height: 20px ; min-width: 50px ; text-align: right ; vertical-align: top ; width: 50px&quot;&gt;&lt;/td&gt;&lt;/tr&gt;&lt;/tbody&gt;&lt;/table&gt;&lt;br&gt;&amp;nbsp;" style="shape=module;align=left;spacingLeft=20;align=center;verticalAlign=top;rounded=0;html=1;" parent="1" vertex="1">
          <mxGeometry x="1001" y="938" width="490" height="112" as="geometry" />
        </mxCell>
        <mxCell id="5TeKzXtCSBQQUykrGEJ6-35" value="num_params()&lt;br&gt;return num of parameters" style="shape=module;align=left;spacingLeft=20;align=center;verticalAlign=top;rounded=0;html=1;" parent="1" vertex="1">
          <mxGeometry x="1001" y="1057" width="490" height="50" as="geometry" />
        </mxCell>
        <mxCell id="5TeKzXtCSBQQUykrGEJ6-36" value="BottleneckResBlock&lt;br&gt;Inheriting nn.Module" style="swimlane;fontStyle=0;childLayout=stackLayout;horizontal=1;startSize=26;fillColor=#ffe6cc;horizontalStack=0;resizeParent=1;resizeParentMax=0;resizeLast=0;collapsible=1;marginBottom=0;rounded=0;strokeColor=#d79b00;html=1;" parent="1" vertex="1">
          <mxGeometry x="868" y="1232" width="140" height="483" as="geometry" />
        </mxCell>
        <mxCell id="5TeKzXtCSBQQUykrGEJ6-37" value="" style="text;fillColor=#f8cecc;align=left;verticalAlign=top;spacingLeft=4;spacingRight=4;overflow=hidden;rotatable=0;points=[[0,0.5],[1,0.5]];portConstraint=eastwest;strokeColor=#b85450;gradientColor=#ea6b66;" parent="5TeKzXtCSBQQUykrGEJ6-36" vertex="1">
          <mxGeometry y="26" width="140" height="457" as="geometry" />
        </mxCell>
        <mxCell id="8XfggVGOjsV1GavnQ5BD-5" style="edgeStyle=orthogonalEdgeStyle;rounded=1;sketch=0;orthogonalLoop=1;jettySize=auto;html=1;entryX=1;entryY=0.5;entryDx=0;entryDy=0;exitX=1;exitY=0.75;exitDx=0;exitDy=0;" edge="1" parent="1" source="16C45QZN2lyrI173hi5t-1" target="8cmXExLqv_iDycsSzqJl-4">
          <mxGeometry relative="1" as="geometry">
            <Array as="points">
              <mxPoint x="1519" y="1376" />
              <mxPoint x="1519" y="91" />
              <mxPoint x="490" y="91" />
              <mxPoint x="490" y="422" />
            </Array>
          </mxGeometry>
        </mxCell>
        <mxCell id="16C45QZN2lyrI173hi5t-1" value="__init__(self,in_channel, out_channel, stride =1)&lt;br&gt;&lt;br&gt;self.stride = stride&lt;br&gt;self.in_channels = in_channels&lt;br&gt;self.out_channels = out_channels&lt;br&gt;if stride &amp;gt;1:&lt;br&gt;self.maxpool = nn.MaxPool2d(kerenel_size = stride+1, stride= stride, paddong= stride//2)&lt;br&gt;&lt;span class=&quot;pl-s1&quot; style=&quot;box-sizing: border-box ; color: rgb(36 , 41 , 47) ; font-family: , , &amp;#34;sf mono&amp;#34; , &amp;#34;menlo&amp;#34; , &amp;#34;consolas&amp;#34; , &amp;#34;liberation mono&amp;#34; , monospace ; background-color: rgb(255 , 255 , 255)&quot;&gt;&lt;br&gt;&lt;div&gt;self.conv=&amp;nbsp;&lt;span class=&quot;pl-en&quot; style=&quot;box-sizing: border-box&quot;&gt;conv1x1&lt;/span&gt;(&lt;span class=&quot;pl-s1&quot; style=&quot;box-sizing: border-box&quot;&gt;in_channels&lt;/span&gt;,&amp;nbsp;&lt;span class=&quot;pl-s1&quot; style=&quot;box-sizing: border-box&quot;&gt;out_channels&lt;/span&gt;,&amp;nbsp;&lt;span class=&quot;pl-s1&quot; style=&quot;box-sizing: border-box&quot;&gt;stride&lt;/span&gt;&lt;span class=&quot;pl-c1&quot; style=&quot;box-sizing: border-box&quot;&gt;=&lt;/span&gt;&lt;span class=&quot;pl-s1&quot; style=&quot;box-sizing: border-box&quot;&gt;stride&lt;/span&gt;,&amp;nbsp;&lt;span class=&quot;pl-s1&quot; style=&quot;box-sizing: border-box&quot;&gt;use_bias&lt;/span&gt;&lt;span class=&quot;pl-c1&quot; style=&quot;box-sizing: border-box&quot;&gt;=&lt;/span&gt;&lt;span class=&quot;pl-c1&quot; style=&quot;box-sizing: border-box&quot;&gt;False&lt;/span&gt;)&lt;/div&gt;&lt;div&gt;&lt;span&gt;	&lt;/span&gt;sel.bn =nn.BatchNorm2d(out_channels)&lt;/div&gt;&lt;/span&gt;" style="shape=module;align=left;spacingLeft=20;align=center;verticalAlign=top;rounded=0;html=1;" parent="1" vertex="1">
          <mxGeometry x="1001" y="1260" width="490" height="154" as="geometry" />
        </mxCell>
        <mxCell id="8XfggVGOjsV1GavnQ5BD-1" value="forward(self, x)&lt;br&gt;if self.stride &amp;gt;1:&lt;br&gt;x= self.maxpool(x&lt;br&gt;return self.bn(self.conv(x))" style="shape=module;align=left;spacingLeft=20;align=center;verticalAlign=top;rounded=0;html=1;" vertex="1" parent="1">
          <mxGeometry x="1001" y="1417.5" width="490" height="112" as="geometry" />
        </mxCell>
        <mxCell id="8XfggVGOjsV1GavnQ5BD-2" value="num_params()&lt;br&gt;return num of parameters" style="shape=module;align=left;spacingLeft=20;align=center;verticalAlign=top;rounded=0;html=1;" vertex="1" parent="1">
          <mxGeometry x="1001" y="1533" width="490" height="50" as="geometry" />
        </mxCell>
        <mxCell id="8XfggVGOjsV1GavnQ5BD-3" value="Flops()&lt;br&gt;Calculate and retrns Flop&lt;br&gt;" style="shape=module;align=left;spacingLeft=20;align=center;verticalAlign=top;rounded=0;html=1;" vertex="1" parent="1">
          <mxGeometry x="1001" y="1589" width="490" height="50" as="geometry" />
        </mxCell>
      </root>
    </mxGraphModel>
  </diagram>
  <diagram id="pSsk6tU87ZdI53kx-52e" name="Page-2">
    <mxGraphModel dx="868" dy="555" grid="1" gridSize="10" guides="1" tooltips="1" connect="1" arrows="1" fold="1" page="1" pageScale="1" pageWidth="1169" pageHeight="1654" math="0" shadow="0">
      <root>
        <mxCell id="YD0y9ioqF3FHzDd9ohLl-0" />
        <mxCell id="YD0y9ioqF3FHzDd9ohLl-1" parent="YD0y9ioqF3FHzDd9ohLl-0" />
      </root>
    </mxGraphModel>
  </diagram>
</mxfile>
